<?xml version="1.0" encoding="UTF-8"?>
<svg width="20px" height="20px" viewBox="0 0 20 20" version="1.1" xmlns="http://www.w3.org/2000/svg" xmlns:xlink="http://www.w3.org/1999/xlink">
    <!-- Generator: Sketch 61.2 (89653) - https://sketch.com -->
    <title>icon_list_cart</title>
    <desc>Created with Sketch.</desc>
    <g id="Page-1" stroke="none" stroke-width="1" fill="none" fill-rule="evenodd">
        <g id="下单" transform="translate(-253.000000, -30.000000)" fill="#F2F2F2" fill-rule="nonzero">
            <g id="icon_cart32" transform="translate(247.000000, 24.000000)">
                <g id="icon_list_cart">
                    <g transform="translate(6.000000, 6.000000)">
                        <g id="编组-2">
                            <g>
                                <g>
                                    <path d="M18.9065935,4.76133116 C18.8240416,4.65291956 18.6966245,4.58309514 18.5620289,4.58309514 L4.43846795,4.58309514 L3.83906905,1.35830951 C3.79958769,1.14699878 3.61833233,1 3.40656865,1 L1.43788423,1 C1.19561222,1 1,1.20212332 1,1.45018375 C1,1.69824418 1.19561222,1.9003675 1.43788423,1.9003675 L3.04405793,1.9003675 L3.60935929,5.12331564 C3.60935929,5.12515312 3.60935929,5.12699061 3.60935929,5.13066558 L5.38243149,14.5679869 C5.42191286,14.7792977 5.61931968,14.9281339 5.82928876,14.9281339 L16.3672239,14.9281339 C16.609496,14.9281339 16.8069028,14.7260106 16.8069028,14.4779502 C16.8069028,14.2298898 16.609496,14.0277664 16.3672239,14.0277664 L6.19179947,14.0277664 L5.92081374,12.6092283 L16.9091954,12.6680278 C16.9091954,12.6680278 16.9091954,12.6680278 16.9091954,12.6680278 C17.1119861,12.6680278 17.2896522,12.4934667 17.336312,12.2913434 L18.9873509,5.14352797 C19.0196538,5.0075541 18.9891455,4.86790527 18.9065935,4.76133116 Z M16.5628362,11.7070233 L5.75391524,11.6849735 L4.9535203,7.38709677 L4.60536645,5.50183748 L18.0074952,5.50183748 L16.5628362,11.7070233 Z M7.16447673,15.8542262 C6.317422,15.8542262 5.62829272,16.5598203 5.62829272,17.4271131 C5.62829272,18.2944059 6.317422,19 7.16447673,19 C8.01153147,19 8.70066074,18.2944059 8.70066074,17.4271131 C8.70066074,16.5598203 8.01153147,15.8542262 7.16447673,15.8542262 Z M7.16447673,18.1033075 C6.80196602,18.1033075 6.50585578,17.8001225 6.50585578,17.4289506 C6.50585578,17.0577787 6.80196602,16.7545937 7.16447673,16.7545937 C7.52698744,16.7545937 7.82309768,17.0577787 7.82309768,17.4289506 C7.82309768,17.8001225 7.52698744,18.1033075 7.16447673,18.1033075 Z M14.6282493,15.8542262 C13.7811945,15.8542262 13.0920653,16.5598203 13.0920653,17.4271131 C13.0920653,18.2944059 13.7811945,19 14.6282493,19 C15.475304,19 16.1644333,18.2944059 16.1644333,17.4271131 C16.1644333,16.5598203 15.4770986,15.8542262 14.6282493,15.8542262 Z M14.6282493,18.1033075 C14.2657386,18.1033075 13.9696283,17.8001225 13.9696283,17.4289506 C13.9696283,17.0577787 14.2657386,16.7545937 14.6282493,16.7545937 C14.99076,16.7545937 15.2868702,17.0577787 15.2868702,17.4289506 C15.2868702,17.8001225 14.9925546,18.1033075 14.6282493,18.1033075 Z" id="形状备份"></path>
                                </g>
                            </g>
                        </g>
                    </g>
                </g>
            </g>
        </g>
    </g>
</svg>