<?xml version="1.0" encoding="utf-8"?>
<svg version="1.1" xmlns:xlink="http://www.w3.org/1999/xlink" width="18px" height="18px" xmlns="http://www.w3.org/2000/svg">
  <g transform="matrix(1 0 0 1 -301 -22 )">
    <path d="M 9.72540562500001 13.47780375  C 9.69786562499996 13.66392375  9.67878562499999 13.85274375  9.67878562499999 14.04624375  C 9.67878562499999 16.17834375  11.413265625 17.91264375  13.545185625 17.91264375  C 15.677105625 17.91264375  17.411585625 16.17816375  17.411585625 14.04624375  C 17.411585625 11.91432375  15.677465625 10.17984375  13.545365625 10.17984375  C 11.869745625 10.17984375  10.443965625 11.25300375  9.90846562499996 12.74664375  C 9.90846562499996 12.74664375  7.49466562499998 11.28198375  7.49466562499998 11.28198375  C 7.65444296332265 10.8545885201781  7.73673081905247 10.4021272215984  7.73766562499998 9.94584375  C 7.73766562499998 9.31512375000001  7.58592562499996 8.70834375  7.30278562499996 8.16456375  C 7.30278562499996 8.16456375  10.320125625 6.00114375  10.320125625 6.00114375  C 11.012765625 7.04766375  12.199145625 7.74030375  13.545365625 7.74030375  C 15.677465625 7.74030375  17.411765625 6.00582375  17.411765625 3.87390375  C 17.411765625 1.74198375  15.677285625 0.00750375000000147  13.545365625 0.00750375000000147  C 11.413445625 0.00750375000000147  9.67896562499999 1.74198375  9.67896562499999 3.87390375  C 9.67896562499999 4.40076375  9.78570562499999 4.90296375  9.97722562499996 5.36106375  C 9.97722562499996 5.36106375  6.910205625 7.55994375  6.910205625 7.55994375  C 6.81539407301557 7.43804673312799  6.71345609729127 7.32186388697522  6.60492562499996 7.21200375  C 5.88146635216935 6.48442298230671  4.89694604285273 6.07658824754996  3.87090562499998 6.07944375  C 1.738985625 6.07944375  0.00450562499997886 7.81392375  0.00450562499997886 9.94584375  C 0.00450562499997886 12.07794375  1.738985625 13.81224375  3.87090562499998 13.81224375  C 5.27544562499997 13.81224375  6.50376562499997 13.05714375  7.18092562499999 11.93394375  C 7.18092562499999 11.93394375  9.72540562500001 13.47780375  9.72540562500001 13.47780375  Z M 13.545365625 0.72732375  C 15.280385625 0.72732375  16.691765625 2.13888375  16.691765625 3.87372375  C 16.691765625 5.60856374999999  15.280205625 7.02012375  13.545365625 7.02012375  C 11.810525625 7.02012375  10.398965625 5.60856374999999  10.398965625 3.87372375  C 10.398965625 2.13888375  11.810345625 0.72732375  13.545365625 0.72732375  Z M 6.09588562499999 7.72122375  C 6.68791358975085 8.30996086862076  7.01977566117324 9.11109665041391  7.01748562500001 9.94602375  C 7.01748562500001 11.68086375  5.605925625 13.09242375  3.87090562499998 13.09242375  C 2.13588562500001 13.09242375  0.724505625000006 11.68086375  0.724505625000006 9.94602375  C 0.724505625000006 8.21118375  2.13606562500001 6.79962375  3.87090562499998 6.79962375  C 4.71132562499997 6.79962375  5.501525625 7.12686375000001  6.09588562499999 7.72122375  Z M 16.691765625 14.04642375  C 16.691765625 15.78126375  15.280385625 17.19282375  13.545365625 17.19282375  C 11.810345625 17.19282375  10.398965625 15.78126375  10.398965625 14.04642375  C 10.398965625 12.31158375  11.810525625 10.90002375  13.545365625 10.90002375  C 15.280205625 10.90002375  16.691765625 12.31158375  16.691765625 14.04642375  Z " fill-rule="nonzero" fill="#f2f2f2" stroke="none" transform="matrix(1 0 0 1 301 22 )" />
  </g>
</svg>