<?xml version="1.0" standalone="no"?><!DOCTYPE svg PUBLIC "-//W3C//DTD SVG 1.1//EN" "http://www.w3.org/Graphics/SVG/1.1/DTD/svg11.dtd"><svg t="1630641254608" class="icon" viewBox="0 0 1024 1024" version="1.1" xmlns="http://www.w3.org/2000/svg" p-id="49684" xmlns:xlink="http://www.w3.org/1999/xlink" width="20" height="20"><defs><style type="text/css"></style></defs><path d="M612.758916 978.396952c-231.486701 0.504328-441.287285-136.672976-534.083697-348.995202A581.019853 581.019853 0 0 1 185.088496 0H142.220588C-60.015071 244.599238-43.372236 602.672349 181.053869 827.098454c224.426105 224.426105 583.003544 241.06894 827.098454 38.833281v-42.867908c-107.926262 99.857008-249.138193 155.333124-395.393407 155.333125z" fill="#cdcdcd" p-id="49685"></path><path d="M241.06894 23.703431l3.02597-3.02597-17.147163-17.147163-3.02597 3.02597c-6.556268 6.556268-13.616865 13.616865-19.668805 20.677462l17.651491 17.147163a371.858085 371.858085 0 0 1 19.164477-20.677462zM112.465217 234.008343l-23.199103-7.564925c-3.530298 11.095223-6.556268 21.18179-9.07791 31.772685l23.703431 6.05194c2.017313-10.086567 5.043283-20.173133 8.573582-30.2597z m-16.138507 61.023727l-23.703431-4.538954c-2.017313 11.095223-4.034627 22.190446-5.547612 32.781341l24.20776 3.02597c1.512985-10.590895 3.530298-20.677461 5.043283-31.268357z m-9.582238 94.309397c0-11.095223 0-21.18179 1.512985-31.268356l-24.20776-1.512985c-1.008657 11.095223-1.008657 22.190446-1.512985 32.781341h24.20776zM201.73133 68.084324l-18.660148-15.12985c-7.060597 8.573582-13.616865 17.651491-19.668804 26.225073l19.668804 14.121193c5.547612-8.573582 12.10388-17.147163 18.660148-25.216416z m-66.571339 106.917605l-22.190446-10.086567c-4.538955 10.086567-9.07791 20.173133-13.112537 30.2597l22.694775 8.573582c4.034627-9.07791 8.069253-19.164476 12.608208-28.746715z m30.2597-55.476116l-20.677462-12.608208c-6.05194 9.582238-11.095223 18.660148-16.642834 28.746715l21.181789 11.095223c5.043283-9.07791 10.086567-18.15582 16.138507-27.23373zM87.753129 421.114152l-24.20776 1.008657c0 11.095223 1.512985 22.190446 2.521642 32.781341l24.207759-2.521642c-1.512985-10.590895-2.017313-20.677461-2.521641-31.268356z m232.495358 440.278628c9.582238 6.05194 18.660148 11.095223 28.242386 16.642835l11.599551-21.18179c-9.07791-5.043283-18.15582-11.095223-27.233729-16.138506l-12.608208 20.677461z m606.706975-44.885221l15.12985 19.668805c8.573582-6.556268 17.651491-13.616865 25.720745-20.677461l-15.634178-18.660149c-8.573582 7.060597-16.642835 13.616865-25.216417 19.668805z m70.605966-63.041041c-4.034627 4.538955-8.573582 9.07791-13.112536 13.616865l-9.07791 8.573582 16.642834 17.651491 9.582239-9.07791c2.521642-2.017313 4.538955-4.538955 6.556268-6.556268v-14.625521l-10.590895-9.582239z m-123.056111 97.839696l12.103879 21.181789c9.582238-5.547612 18.660148-11.095223 28.242387-17.147163l-13.112537-20.173133c-9.582238 5.547612-18.15582 10.590895-27.233729 16.138507z m-116.499844 49.424176l6.556269 23.199103c11.095223-3.02597 21.18179-6.556268 31.268356-10.086567l-8.069253-23.199103c-9.07791 4.034627-19.164476 7.060597-29.755372 10.086567z m-61.528055 13.616864l3.530298 23.703432c11.095223-1.512985 22.190446-4.034627 32.781341-6.05194l-5.043283-23.703432c-10.590895 2.521642-20.677461 4.538955-31.268356 6.05194zM94.309397 483.146536l-23.703431 4.034627c1.512985 11.095223 4.034627 22.190446 6.556268 32.781341L100.865665 514.414892c-2.521642-10.086567-4.538955-20.173133-6.556268-31.268356z m723.206819 396.402064l9.582238 22.190446c10.086567-4.034627 20.173133-9.07791 30.2597-13.616865l-11.095224-22.190446c-9.07791 5.043283-18.660148 9.582238-28.746714 13.616865z m-643.018615-151.298498c6.556268 8.573582 13.112536 17.147163 20.677461 25.720745l18.660148-15.634178c-7.060597-8.069253-13.616865-16.138506-20.173133-24.712088l-19.164476 14.625521z m91.787755 94.309397c8.573582 7.060597 17.147163 13.616865 26.225073 20.173133l14.121193-19.668805c-8.573582-6.05194-17.147163-12.608208-25.216416-19.164476l-15.12985 18.660148z m-107.421933-161.385064l-20.677462 12.10388c5.547612 9.582238 11.095223 18.660148 17.651492 28.242386l20.173133-13.616865c-6.05194-9.07791-12.10388-18.15582-17.147163-26.729401z m76.153577 99.857008l-17.651492 17.147163 6.05194 6.05194c5.547612 6.05194 11.599551 11.095223 17.651492 17.147163l16.138506-17.651491c-5.547612-5.043283-11.095223-10.590895-16.642835-16.138506l-5.547611-6.556269z m-104.900292-156.846109l-22.190446 9.582238c4.538955 10.086567 9.07791 20.173133 14.121193 29.755371l22.190446-11.095223c-5.547612-8.573582-9.582238-18.15582-14.121193-28.242386z m-21.686118-59.006414l-23.199103 6.556268c3.02597 11.095223 6.556268 21.18179 10.086567 31.268356l22.694774-8.069253c-3.02597-9.582238-6.556268-19.668805-9.582238-29.755371z m330.839382 372.194304c10.590895 3.530298 21.18179 6.556268 31.772684 9.582238l6.05194-23.199102a344.52349 344.52349 0 0 1-30.2597-9.07791l-7.564924 22.694774z m129.108051 26.225073c11.095223 1.008657 22.190446 1.512985 32.781341 1.512985v-24.207759c-11.095223 0-21.18179-1.008657-31.268356-1.512985l-1.512985 24.207759z m-65.058354-9.07791c11.095223 2.017313 22.190446 4.034627 32.781341 5.547612l3.530298-23.703431c-10.590895-1.512985-20.677461-3.530298-31.268356-5.547612l-5.043283 23.703431z m130.621036-14.121193l0.504329 23.703432c11.095223-0.504328 22.190446-1.008657 32.781341-2.521642l-2.521642-24.20776c-9.582238 2.017313-20.173133 3.02597-30.764028 3.02597zM378.246244 893.165465c10.086567 4.538955 20.173133 9.07791 30.2597 13.112536l9.07791-22.190446c-9.582238-4.034627-19.668805-8.069253-28.746715-12.608208l-10.590895 21.686118z m220.895807-135.159992h12.10388c19.668805 0 39.337609-1.512985 58.502085-5.043283l-4.034626-23.703431c-21.686118 3.530298-43.876564 5.043283-66.067011 4.034626-98.344023-3.02597-190.131779-49.928504-251.155506-127.090738-61.023727-77.162234-84.22283-177.523571-64.049697-273.85028l-23.703432-5.043284a359.922315 359.922315 0 0 0 69.092981 294.023414c65.058354 82.709845 163.402378 132.63835 269.311326 136.672976zM604.689662 63.545369c88.257457-1.008657 173.488944 33.789998 236.529985 95.822382 63.041041 62.032384 98.848352 146.759543 99.857009 235.017 0 19.164476-1.512985 38.833281-4.538955 57.997757l23.703431 4.034627c17.651491-103.891635-11.599551-210.304912-79.683875-290.493116a358.57744 358.57744 0 0 0-273.345953-126.58641h-3.02597c-14.171626 0-28.326441 1.008657-42.363579 3.02597l3.02597 24.712088c13.112536-2.521642 26.225073-3.530298 39.841937-3.530298z" fill="#cdcdcd" p-id="49686"></path></svg>