<?xml version="1.0" encoding="UTF-8"?>
<svg width="224px" height="50px" viewBox="0 0 224 50" version="1.1" xmlns="http://www.w3.org/2000/svg" xmlns:xlink="http://www.w3.org/1999/xlink">
    <!-- Generator: Sketch 61.2 (89653) - https://sketch.com -->
    <title>icon_logo224</title>
    <desc>Created with Sketch.</desc>
    <g id="Page-1" stroke="none" stroke-width="1" fill="none" fill-rule="evenodd">
        <g id="首页" transform="translate(-360.000000, -80.000000)">
            <rect fill="#FFFFFF" x="0" y="0" width="1920" height="3065"></rect>
            <rect id="矩形" fill="#FFFFFF" x="0" y="40" width="1920" height="180"></rect>
            <rect id="矩形备份-2" fill="#FFFFFF" x="0" y="40" width="1920" height="130"></rect>
            <g id="编组-66" transform="translate(360.000000, 66.000000)">
                <g id="icon_logo224" transform="translate(0.000000, 14.000000)">
                    <g>
                        <g>
                            <rect id="矩形" fill="#FCC900" x="0" y="0" width="49.5940959" height="49.5940959" rx="24.797048"></rect>
                            <g id="编组备份" transform="translate(14.089232, 11.271385)" fill="#222222">
                                <path d="M20.4297928,23.5632129 C19.6500234,24.7510932 18.5298725,25.6750001 17.06934,26.3349336 C15.6088076,26.9948672 13.964968,27.3246709 12.1378211,27.3246709 C9.82156772,27.3246709 7.88095138,26.9918242 6.31597208,26.3261309 C4.75099279,25.6604376 3.5231361,24.6591263 2.632402,23.3221972 C1.74207191,21.9854854 1.27448499,20.4042532 1.22810605,18.7170621 L5.23447028,18.7170621 C5.400648,19.7260078 5.71011022,20.5695219 6.16285696,21.2476042 C6.68247878,22.0257498 7.61878382,22.459203 8.71297114,22.9393597 C9.80715847,23.4195163 10.4561403,23.4639376 11.8237533,23.4639376 C13.0383319,23.4639376 14.1106226,23.2819057 15.0406253,22.9178419 C15.9704663,22.5535879 16.654596,22.0484087 17.1171734,21.4195021 C17.882749,20.593675 18.0786878,19.0487134 17.3353321,17.8031262 C17.0821872,17.4612051 16.7152765,17.1613415 16.2556887,16.8882937 C15.9563868,16.7329735 15.6479053,16.5963551 15.3319884,16.479211 C14.6451923,16.2153734 12.8918424,15.8607373 10.5359703,15.3266231 C7.77262613,14.7006508 6.8185452,14.32629 5.68799808,13.8921032 C4.09333843,13.2700431 2.98404159,12.335323 2.34734124,11.3450152 C1.64803334,10.2811475 1.27761645,9.03177731 1.28304974,7.755292 C1.28304974,6.41244004 1.6729075,5.14710107 2.45262303,3.95927508 C3.23233856,2.77144908 4.35248947,1.84754216 5.81307577,1.1875543 C7.27376979,0.527675124 8.91763637,0.197654028 10.7446755,0.197654028 C12.5861508,0.197654028 14.1900755,0.408376315 15.5564495,0.82982089 L13.7539734,4.2800044 C12.8795901,4.03442926 11.9754896,3.91325346 11.0678736,3.91998879 C9.8533758,3.91998879 9.16908453,3.90645866 8.23892026,4.2704681 C7.30875599,4.63447754 6.61686956,5.1339513 6.16237217,5.76880789 C5.7195258,6.3693742 5.48066566,7.09808732 5.48131287,7.84657963 C5.46801998,8.56768442 5.69967826,9.27167639 6.13780911,9.84162196 C6.5755002,10.409969 7.03912794,10.6263696 8.04564777,11.0128749 C6.87728647,10.5536655 8.94252263,11.3830789 12.3456375,12.0658615 C15.1825901,12.7054454 16.1137239,13.0149268 17.3875286,13.5655869 C18.993985,14.3342776 19.8328458,15.151954 20.5338626,16.1774728 C21.2436057,17.2163586 21.598585,18.4128515 21.5988008,19.7669514 C21.5992314,21.1099664 21.2095622,22.3753869 20.4297928,23.5632129 Z" id="S_拷贝"></path>
                                <path d="M2.20925483,12.8485363 C2.62238286,12.8529728 3.04076286,13.2235028 3.08803059,13.8498011 L3.08803059,14.9590274 C3.2364428,14.9667226 3.37929463,15.0184712 3.49865384,15.1077773 C3.77604796,15.0633696 4.05817345,15.15125 4.26245186,15.3456957 C4.6212018,15.3483039 5.2145936,15.5233806 5.29725153,16.4758692 C5.34403446,17.4400133 4.89309224,18.4019568 4.86198442,18.7758285 L4.86198442,19.4995276 L4.86198442,19.4995276 L1.76582697,19.4995276 L1.76582697,18.864997 C1.70417692,18.6204765 1.08808046,18.0303672 0.870648903,17.8736296 C0.565145855,17.65674 0.0206377767,17.4520763 0.000114694389,16.9913183 L0.000114694389,16.8327061 C-0.00441007967,16.5173562 0.124626781,16.0359769 0.443623352,15.8413387 C0.610070397,15.7036736 1.04153992,15.665773 1.32231831,15.8115887 L1.32231831,13.8498011 L1.32231831,13.8498011 C1.36271808,13.2385 1.80347956,12.8442515 2.20925483,12.8485363 Z M2.21030522,13.3838987 C1.90641817,13.3817075 1.75782782,13.7625073 1.75782782,13.8498011 L1.75782782,16.6443438 C1.60285431,16.6443438 1.55275859,16.5249363 1.22398528,16.3370631 C0.70727224,16.0767303 0.417282703,16.389309 0.435624198,16.9320629 C0.487093502,17.0491882 0.734582484,17.1880758 0.862649749,17.2591497 C1.06370717,17.3802106 1.25098991,17.5231595 1.42113615,17.6854304 C1.70474252,17.9846419 2.20133647,18.433989 2.20133647,18.83541 L2.20133647,19.0535223 L2.20133647,19.0535223 L4.41871816,19.0535223 C4.41871816,18.0311008 4.86222682,17.5510256 4.86222682,16.6842006 C4.86198442,15.9794927 4.52723194,15.8614708 4.237808,15.8802989 L4.237808,16.8072759 L3.97496711,16.8072759 L3.97496711,15.7491544 C3.86081502,15.6471325 3.70455388,15.607596 3.55618311,15.6431956 L3.55618311,16.6242116 L3.29334221,16.6242116 L3.29334221,15.5772566 C3.0962758,15.4365022 2.82809241,15.4557478 2.65276349,15.6232264 L2.65276349,13.8498011 C2.65276349,13.7739183 2.51960585,13.3838987 2.21030522,13.3838987 Z" id="形状结合"></path>
                                <polygon id="_3_拷贝-path" points="18.224935 4.00597848 19.7304728 1.14623035 16.5205496 1.14623035 15.952448 2.01496429e-13 21.6337059 2.01496429e-13 19.2304852 4.54465703"></polygon>
                                <path d="M16.51554,4.63268439 C16.8075067,4.63305785 17.0481944,4.86371631 17.0635225,5.1578328 L17.0886511,5.1578328 C17.0879411,5.93633411 17.6058853,6.61816953 18.3512556,6.81995877 C19.0966259,7.02174802 19.8833967,6.69312959 20.269185,6.01887804 C20.6549733,5.34462649 20.5434961,4.49301794 19.9974344,3.94289221 C19.9709322,3.91623948 19.94443,3.89129839 19.9179277,3.86839498 L20.4633246,2.83684472 C20.5830595,2.92678743 20.6969263,3.02441739 20.8042178,3.12912816 C21.7138367,4.04654821 21.8992753,5.46586076 21.2563538,6.58969288 C20.6134322,7.71352499 19.3024325,8.26170254 18.0598771,7.92625815 C16.8173218,7.59081376 15.9529829,6.45537455 15.952448,5.1578328 L15.9675576,5.1578328 C15.9826465,4.86360526 16.2234756,4.63281132 16.51554,4.63268439 L16.51554,4.63268439 Z" id="_3_拷贝-path"></path>
                            </g>
                            <path d="M223.455216,32.3203861 L223.455216,35.0523328 L215.310105,35.0523328 L215.310105,20.8803591 L223.455216,20.8803591 L223.455216,23.7830525 L218.534211,23.7830525 L218.534211,26.6857459 L223.115837,26.6857459 L223.115837,29.4176927 L218.534211,29.4176927 L218.534211,32.3203861 L223.455216,32.3203861 Z M210.389099,35.0523328 L205.298405,29.0761993 L205.298405,35.0523328 L202.074298,35.0523328 L202.074298,20.8803591 L205.298405,20.8803591 L205.298405,26.6857459 L210.04972,20.8803591 L213.443516,20.8803591 L208.280915,27.6636975 L214.801035,35.0523328 L210.389099,35.0523328 Z M197.047661,32.2569964 L195.117015,32.2569964 L195.117015,29.4176927 L195.965464,29.4176927 L194.400499,25.3415427 L194.366562,25.3415427 L192.741357,29.4176927 L193.759496,29.4176927 L193.759496,32.2569964 L191.7194,32.2569964 L190.535389,35.0523328 L187.311283,35.0523328 L192.911047,20.8803591 L195.795774,20.8803591 L201.395538,35.0523328 L198.171432,35.0523328 L197.047661,32.2569964 Z M183.578106,29.4176927 L179.009632,29.4223882 L178.996481,35.0523328 L175.772374,35.0523328 L175.772374,20.8803591 L178.996481,20.8803591 L178.996481,26.6857459 L183.578106,26.6857459 L183.578106,20.8803591 L186.802213,20.8803591 L186.802213,35.0523328 L183.578106,35.0523328 L183.578106,29.4176927 Z M166.724088,22.0034453 C167.183311,22.2666086 167.587173,22.4779076 167.935674,22.6371289 C168.283962,22.7965636 168.822515,23.0356089 169.551121,23.3540515 C170.818067,23.8961722 171.898992,24.6331575 172.793893,25.5652209 C173.688583,26.4974977 174.13614,27.5535659 174.13614,28.7327851 C174.13614,29.8644086 173.934209,30.8523916 173.530347,31.6967339 C173.126486,32.5417165 172.572024,33.2027195 171.867387,33.6810236 C171.162538,34.1591143 170.382601,34.5138405 169.527364,34.744562 C168.672127,34.9754968 167.776589,35.0523328 166.778813,35.0523328 C165.923576,35.0523328 165.053068,35.0034566 164.229648,34.8282278 C163.406016,34.6532125 162.717075,34.433803 162.162826,34.1710666 C161.608364,33.9079033 161.109476,33.6492221 160.666161,33.3939558 C160.222635,33.1393298 159.897891,32.924189 159.692142,32.7485334 L159.383306,32.4857969 L161.616424,28.7086671 C161.806477,28.8683152 162.067799,29.0715038 162.400391,29.3182327 C162.733196,29.565602 163.322868,29.8962102 164.170256,30.3102709 C165.017433,30.7249719 165.765765,30.9320022 166.415253,30.9320022 C168.29987,30.9320022 169.242285,30.2865798 169.242285,28.9955215 C169.242285,28.724888 169.174834,28.4738904 169.040354,28.2427421 C168.905663,28.0118072 168.668097,27.7806589 168.327657,27.5495106 C167.987005,27.3185758 167.68623,27.1352365 167.424907,26.9994929 C167.163585,26.8643896 166.735967,26.6571458 166.142052,26.3781885 C165.548138,26.0994445 165.108641,25.8879321 164.823562,25.7445049 C163.635733,25.1552154 162.717075,24.4178032 162.067799,23.5333355 C161.418311,22.6488677 161.09378,21.696955 161.09378,20.6767437 C161.09378,18.9078081 161.743055,17.4615838 163.041819,16.3382842 C164.34037,15.2145576 165.821338,14.6528011 167.484299,14.6528011 C168.545284,14.6528011 169.582726,14.808394 170.59641,15.1191529 C171.609883,15.4296984 172.362245,15.736829 172.853285,16.039264 L173.565982,16.5173547 L171.760482,20.1030348 C171.617943,20.0074167 171.41983,19.8842657 171.166568,19.732728 C170.913094,19.5814038 170.437962,19.3782152 169.741173,19.1229489 C169.044172,18.868323 168.394897,18.7404764 167.793346,18.7404764 C167.04862,18.7404764 166.474644,18.9001245 166.070782,19.2187805 C165.666921,19.5376499 165.46499,19.9679315 165.46499,20.5094119 C165.46499,20.7806857 165.560016,21.0316833 165.750069,21.2626182 C165.940121,21.4937665 166.264653,21.7404954 166.724088,22.0034453 Z M153.543006,29.759186 L151.846108,29.759186 L151.846108,35.0523328 L148.622001,35.0523328 L148.622001,20.8803591 L153.712696,20.8803591 C155.138091,20.8803591 156.241075,21.357596 157.123462,22.097356 C158.005849,22.8375428 158.447043,23.9132468 158.447043,25.3244681 C158.447043,26.7361162 157.99991,27.8429815 157.106493,28.6457043 C156.212652,29.4480002 154.945493,29.759186 153.543006,29.759186 Z M154.39994,23.9841067 C153.941778,23.6938374 153.407255,23.4415591 152.694557,23.4415591 L151.846108,23.4415591 L151.846108,27.3687326 L152.864247,27.3687326 C153.576944,27.3687326 153.941778,27.1429201 154.39994,26.8526508 C154.858103,26.5623814 155.070215,25.9799219 155.070215,25.3197725 C155.070215,24.6480978 154.858103,24.274376 154.39994,23.9841067 Z M143.361617,20.8803591 L146.585723,20.8803591 L146.585723,35.0523328 L143.361617,35.0523328 L143.361617,20.8803591 Z M138.101232,29.4223882 L133.519607,29.4176927 L133.519607,35.0523328 L130.2955,35.0523328 L130.2955,20.8803591 L133.519607,20.8803591 L133.519607,26.6857459 L138.101232,26.6857459 L138.101232,20.8803591 L141.325339,20.8803591 L141.325339,35.0523328 L138.101232,35.0523328 L138.101232,29.4223882 Z M121.302151,22.0034453 C121.761162,22.2666086 122.165024,22.4779076 122.513736,22.6371289 C122.861813,22.7965636 123.400366,23.0356089 124.129183,23.3540515 C125.395918,23.8961722 126.476842,24.6331575 127.371956,25.5652209 C128.266434,26.4974977 128.714203,27.5535659 128.714203,28.7327851 C128.714203,29.8644086 128.512272,30.8523916 128.10841,31.6967339 C127.704548,32.5417165 127.149875,33.2027195 126.44545,33.6810236 C125.740388,34.1591143 124.960664,34.5138405 124.105427,34.744562 C123.25019,34.9754968 122.299715,35.0523328 121.301939,35.0523328 C120.446702,35.0523328 119.630918,35.0034566 118.80771,34.8282278 C117.983866,34.6532125 117.294926,34.433803 116.740888,34.1710666 C116.186215,33.9079033 115.687327,33.6492221 115.244224,33.3939558 C114.800485,33.1393298 114.475741,32.924189 114.270204,32.7485334 L113.961369,32.4857969 L116.194487,28.7086671 C116.38454,28.8683152 116.645862,29.0715038 116.978454,29.3182327 C117.311046,29.565602 117.900718,29.8962102 118.748319,30.3102709 C119.595283,30.7249719 120.343615,30.9320022 120.993315,30.9320022 C122.877721,30.9320022 123.820348,30.2865798 123.820348,28.9955215 C123.820348,28.724888 123.752684,28.4738904 123.618417,28.2427421 C123.483514,28.0118072 123.245948,27.7806589 122.90572,27.5495106 C122.564855,27.3185758 122.264292,27.1352365 122.00297,26.9994929 C121.741648,26.8643896 121.314029,26.6571458 120.720115,26.3781885 C120.1262,26.0994445 119.686704,25.8879321 119.401625,25.7445049 C118.213796,25.1552154 117.294926,24.4178032 116.645862,23.5333355 C115.996162,22.6488677 115.671842,21.696955 115.671842,20.6767437 C115.671842,18.9078081 116.320906,17.4615838 117.619882,16.3382842 C118.918221,15.2145576 120.399401,14.6528011 122.062361,14.6528011 C123.123135,14.6528011 124.160576,14.808394 125.174473,15.1191529 C126.187733,15.4296984 126.940095,15.736829 127.431348,16.039264 L128.144045,16.5173547 L126.338545,20.1030348 C126.196006,20.0074167 125.997681,19.8842657 125.744631,19.732728 C125.490944,19.5814038 125.015813,19.3782152 124.319236,19.1229489 C123.622023,18.868323 122.972747,18.7404764 122.371197,18.7404764 C121.626471,18.7404764 121.052707,18.9001245 120.648845,19.2187805 C120.244983,19.5376499 120.043052,19.9679315 120.043052,20.5094119 C120.043052,20.7806857 120.138079,21.0316833 120.328131,21.2626182 C120.518184,21.4937665 120.842504,21.7404954 121.302151,22.0034453 Z M108.235822,29.9299327 L106.369234,29.9299327 L106.369234,35.0523328 L103.145127,35.0523328 L103.145127,20.8803591 L108.235822,20.8803591 C109.661216,20.8803591 110.818925,21.357596 111.701312,22.097356 C112.5837,22.8375428 113.024893,23.9132468 113.024893,25.3244681 C113.024893,26.7361162 112.57776,27.8429815 111.684343,28.6457043 C110.790502,29.4480002 109.638308,29.9299327 108.235822,29.9299327 Z M108.977791,23.9841067 C108.519628,23.6938374 107.93038,23.6123058 107.217683,23.6123058 L106.369234,23.6123058 L106.369234,27.1979859 L107.217683,27.1979859 C107.93038,27.1979859 108.519628,27.1429201 108.977791,26.8526508 C109.435953,26.5623814 109.665034,26.0872788 109.665034,25.4269161 C109.665034,24.7554548 109.435953,24.274376 108.977791,23.9841067 Z M94.6606355,35.2230795 C92.6129035,35.2230795 90.9452767,34.6331498 89.6161811,33.2385763 C88.2866613,31.8444297 87.5336626,30.1348287 87.5336626,28.0517193 C87.5336626,26.0140712 88.3121147,24.2602894 89.6925415,22.8488548 C90.9090055,21.6045384 92.3295215,21.02464 93.9818762,20.904477 L93.9818762,23.8496437 C93.1385177,24.0171889 92.4451227,24.4925049 91.9455982,25.1490259 C91.3177458,25.9743726 90.9274592,26.9019539 90.9274592,28.0517193 C90.9274592,28.7916927 91.1798729,29.4369017 91.4064088,30.045827 C91.6325205,30.6547523 92.058442,31.2162954 92.6243575,31.6373994 C93.1898489,32.0585034 93.8346702,32.3203861 94.6606355,32.3203861 C95.8484643,32.3203861 96.6006145,31.9447434 97.2059829,31.1251594 C97.8109272,30.3055754 98.3938118,29.2127967 98.3938118,28.0517193 C98.3938118,26.9019539 97.9920711,25.9743726 97.3756728,25.1490259 C96.8839965,24.4910109 96.1906014,24.0150545 95.3393948,23.8485765 L95.3393948,20.9040502 C97.0091427,21.0227191 98.462324,21.5998429 99.6703035,22.840104 C101.038852,24.2462028 101.787608,26.0027592 101.787608,28.0517193 C101.787608,30.1119913 101.050306,31.8158297 99.7042415,33.2217151 C98.3577527,34.6276005 96.6629755,35.2230795 94.6606355,35.2230795 Z M82.9520372,29.4176927 L78.5401017,29.4176927 L78.5401017,35.0523328 L75.3159949,35.0523328 L75.3159949,20.8803591 L78.5401017,20.8803591 L78.5401017,26.6857459 L82.9520372,26.6857459 L82.9520372,20.8803591 L86.176144,20.8803591 L86.176144,35.0523328 L82.9520372,35.0523328 L82.9520372,29.4176927 Z M66.2295287,22.0111289 C66.6883276,22.2738653 67.0919773,22.4851643 67.4402657,22.6441722 C67.7883419,22.8036069 68.3264708,23.0426522 69.0548644,23.3608813 C70.3209626,23.9025752 71.4012505,24.6391336 72.2955159,25.5707701 C73.1895692,26.5026201 73.6371261,27.5578345 73.6371261,28.7362 C73.6371261,29.8673967 73.4351952,30.8547393 73.0315456,31.6986548 C72.6278959,32.5429971 72.0738586,33.2037867 71.3696458,33.6814505 C70.6652209,34.1593277 69.8857082,34.5140539 69.0311078,34.744562 C68.1762953,34.9752834 67.3195738,35.0523328 66.3224339,35.0523328 C65.4676214,35.0523328 64.5593566,35.0032432 63.736573,34.8282278 C62.9133652,34.6532125 62.2248487,34.4340164 61.6708114,34.17128 C61.116562,33.9085436 60.6180982,33.6498624 60.1752077,33.3948095 C59.731893,33.1401835 59.4071491,32.9252562 59.2016123,32.749814 L58.8929889,32.4870775 L61.1248344,28.7122955 C61.3146749,28.8717302 61.5759973,29.0749187 61.9083772,29.3216477 C62.2407572,29.56859 62.8302172,29.8989848 63.6771816,30.3130455 C64.5237217,30.7273196 65.2716296,30.9341365 65.9206932,30.9341365 C67.8042503,30.9341365 68.7460289,30.289141 68.7460289,28.9991499 C68.7460289,28.7285164 68.6785772,28.4775188 68.5443101,28.2465839 C68.4096188,28.0158625 68.1722652,27.7847142 67.8320371,27.5537793 C67.4915968,27.3230579 67.1910337,27.1397186 66.9299235,27.0041885 C66.6686012,26.8690851 66.241407,26.6618414 65.6477047,26.3830974 C65.0542145,26.1045669 64.61493,25.8932679 64.3300632,25.7500541 C63.1428707,25.1609781 62.2248487,24.4239928 61.5759973,23.5401653 C60.9267215,22.6561245 60.6024019,21.7046386 60.6024019,20.685281 C60.6024019,18.9174126 61.2512533,17.4720421 62.5493805,16.3491693 C63.8470835,15.2262965 65.3272031,14.6649668 66.9891028,14.6649668 C68.0494521,14.6649668 69.086257,14.8201328 70.0995174,15.1308918 C71.1121415,15.4414373 71.8640795,15.748141 72.3549074,16.050576 L73.0671804,16.5284533 L71.2627412,20.111999 C71.1204138,20.0163809 70.922301,19.8932299 70.669251,19.7416922 C70.4157768,19.590368 69.9410695,19.3873929 69.2447049,19.13234 C68.5481281,18.877714 67.8992767,18.7500809 67.2979383,18.7500809 C66.5536363,18.7500809 65.9800847,18.9095156 65.576435,19.2279581 C65.1729974,19.5468276 64.9710665,19.9766823 64.9710665,20.5179493 C64.9710665,20.7890096 65.0660928,21.0397938 65.2559333,21.2705152 C65.4459859,21.5016635 65.7700935,21.7483925 66.2295287,22.0111289 Z" id="形状" fill="#222222"></path>
                        </g>
                    </g>
                </g>
                <g id="icon_logo224" transform="translate(0.000000, 14.000000)">
                    <g>
                        <g>
                            <rect id="矩形" fill="#FCC900" x="0" y="0" width="49.5940959" height="49.5940959" rx="24.797048"></rect>
                            <g id="编组备份" transform="translate(14.089232, 11.271385)" fill="#222222">
                                <path d="M20.4297928,23.5632129 C19.6500234,24.7510932 18.5298725,25.6750001 17.06934,26.3349336 C15.6088076,26.9948672 13.964968,27.3246709 12.1378211,27.3246709 C9.82156772,27.3246709 7.88095138,26.9918242 6.31597208,26.3261309 C4.75099279,25.6604376 3.5231361,24.6591263 2.632402,23.3221972 C1.74207191,21.9854854 1.27448499,20.4042532 1.22810605,18.7170621 L5.23447028,18.7170621 C5.400648,19.7260078 5.71011022,20.5695219 6.16285696,21.2476042 C6.68247878,22.0257498 7.61878382,22.459203 8.71297114,22.9393597 C9.80715847,23.4195163 10.4561403,23.4639376 11.8237533,23.4639376 C13.0383319,23.4639376 14.1106226,23.2819057 15.0406253,22.9178419 C15.9704663,22.5535879 16.654596,22.0484087 17.1171734,21.4195021 C17.882749,20.593675 18.0786878,19.0487134 17.3353321,17.8031262 C17.0821872,17.4612051 16.7152765,17.1613415 16.2556887,16.8882937 C15.9563868,16.7329735 15.6479053,16.5963551 15.3319884,16.479211 C14.6451923,16.2153734 12.8918424,15.8607373 10.5359703,15.3266231 C7.77262613,14.7006508 6.8185452,14.32629 5.68799808,13.8921032 C4.09333843,13.2700431 2.98404159,12.335323 2.34734124,11.3450152 C1.64803334,10.2811475 1.27761645,9.03177731 1.28304974,7.755292 C1.28304974,6.41244004 1.6729075,5.14710107 2.45262303,3.95927508 C3.23233856,2.77144908 4.35248947,1.84754216 5.81307577,1.1875543 C7.27376979,0.527675124 8.91763637,0.197654028 10.7446755,0.197654028 C12.5861508,0.197654028 14.1900755,0.408376315 15.5564495,0.82982089 L13.7539734,4.2800044 C12.8795901,4.03442926 11.9754896,3.91325346 11.0678736,3.91998879 C9.8533758,3.91998879 9.16908453,3.90645866 8.23892026,4.2704681 C7.30875599,4.63447754 6.61686956,5.1339513 6.16237217,5.76880789 C5.7195258,6.3693742 5.48066566,7.09808732 5.48131287,7.84657963 C5.46801998,8.56768442 5.69967826,9.27167639 6.13780911,9.84162196 C6.5755002,10.409969 7.03912794,10.6263696 8.04564777,11.0128749 C6.87728647,10.5536655 8.94252263,11.3830789 12.3456375,12.0658615 C15.1825901,12.7054454 16.1137239,13.0149268 17.3875286,13.5655869 C18.993985,14.3342776 19.8328458,15.151954 20.5338626,16.1774728 C21.2436057,17.2163586 21.598585,18.4128515 21.5988008,19.7669514 C21.5992314,21.1099664 21.2095622,22.3753869 20.4297928,23.5632129 Z" id="S_拷贝"></path>
                                <path d="M2.20925483,12.8485363 C2.62238286,12.8529728 3.04076286,13.2235028 3.08803059,13.8498011 L3.08803059,14.9590274 C3.2364428,14.9667226 3.37929463,15.0184712 3.49865384,15.1077773 C3.77604796,15.0633696 4.05817345,15.15125 4.26245186,15.3456957 C4.6212018,15.3483039 5.2145936,15.5233806 5.29725153,16.4758692 C5.34403446,17.4400133 4.89309224,18.4019568 4.86198442,18.7758285 L4.86198442,19.4995276 L4.86198442,19.4995276 L1.76582697,19.4995276 L1.76582697,18.864997 C1.70417692,18.6204765 1.08808046,18.0303672 0.870648903,17.8736296 C0.565145855,17.65674 0.0206377767,17.4520763 0.000114694389,16.9913183 L0.000114694389,16.8327061 C-0.00441007967,16.5173562 0.124626781,16.0359769 0.443623352,15.8413387 C0.610070397,15.7036736 1.04153992,15.665773 1.32231831,15.8115887 L1.32231831,13.8498011 L1.32231831,13.8498011 C1.36271808,13.2385 1.80347956,12.8442515 2.20925483,12.8485363 Z M2.21030522,13.3838987 C1.90641817,13.3817075 1.75782782,13.7625073 1.75782782,13.8498011 L1.75782782,16.6443438 C1.60285431,16.6443438 1.55275859,16.5249363 1.22398528,16.3370631 C0.70727224,16.0767303 0.417282703,16.389309 0.435624198,16.9320629 C0.487093502,17.0491882 0.734582484,17.1880758 0.862649749,17.2591497 C1.06370717,17.3802106 1.25098991,17.5231595 1.42113615,17.6854304 C1.70474252,17.9846419 2.20133647,18.433989 2.20133647,18.83541 L2.20133647,19.0535223 L2.20133647,19.0535223 L4.41871816,19.0535223 C4.41871816,18.0311008 4.86222682,17.5510256 4.86222682,16.6842006 C4.86198442,15.9794927 4.52723194,15.8614708 4.237808,15.8802989 L4.237808,16.8072759 L3.97496711,16.8072759 L3.97496711,15.7491544 C3.86081502,15.6471325 3.70455388,15.607596 3.55618311,15.6431956 L3.55618311,16.6242116 L3.29334221,16.6242116 L3.29334221,15.5772566 C3.0962758,15.4365022 2.82809241,15.4557478 2.65276349,15.6232264 L2.65276349,13.8498011 C2.65276349,13.7739183 2.51960585,13.3838987 2.21030522,13.3838987 Z" id="形状结合"></path>
                                <polygon id="_3_拷贝-path" points="18.224935 4.00597848 19.7304728 1.14623035 16.5205496 1.14623035 15.952448 2.01496429e-13 21.6337059 2.01496429e-13 19.2304852 4.54465703"></polygon>
                                <path d="M16.51554,4.63268439 C16.8075067,4.63305785 17.0481944,4.86371631 17.0635225,5.1578328 L17.0886511,5.1578328 C17.0879411,5.93633411 17.6058853,6.61816953 18.3512556,6.81995877 C19.0966259,7.02174802 19.8833967,6.69312959 20.269185,6.01887804 C20.6549733,5.34462649 20.5434961,4.49301794 19.9974344,3.94289221 C19.9709322,3.91623948 19.94443,3.89129839 19.9179277,3.86839498 L20.4633246,2.83684472 C20.5830595,2.92678743 20.6969263,3.02441739 20.8042178,3.12912816 C21.7138367,4.04654821 21.8992753,5.46586076 21.2563538,6.58969288 C20.6134322,7.71352499 19.3024325,8.26170254 18.0598771,7.92625815 C16.8173218,7.59081376 15.9529829,6.45537455 15.952448,5.1578328 L15.9675576,5.1578328 C15.9826465,4.86360526 16.2234756,4.63281132 16.51554,4.63268439 L16.51554,4.63268439 Z" id="_3_拷贝-path"></path>
                            </g>
                            <path d="M223.455216,32.3203861 L223.455216,35.0523328 L215.310105,35.0523328 L215.310105,20.8803591 L223.455216,20.8803591 L223.455216,23.7830525 L218.534211,23.7830525 L218.534211,26.6857459 L223.115837,26.6857459 L223.115837,29.4176927 L218.534211,29.4176927 L218.534211,32.3203861 L223.455216,32.3203861 Z M210.389099,35.0523328 L205.298405,29.0761993 L205.298405,35.0523328 L202.074298,35.0523328 L202.074298,20.8803591 L205.298405,20.8803591 L205.298405,26.6857459 L210.04972,20.8803591 L213.443516,20.8803591 L208.280915,27.6636975 L214.801035,35.0523328 L210.389099,35.0523328 Z M197.047661,32.2569964 L195.117015,32.2569964 L195.117015,29.4176927 L195.965464,29.4176927 L194.400499,25.3415427 L194.366562,25.3415427 L192.741357,29.4176927 L193.759496,29.4176927 L193.759496,32.2569964 L191.7194,32.2569964 L190.535389,35.0523328 L187.311283,35.0523328 L192.911047,20.8803591 L195.795774,20.8803591 L201.395538,35.0523328 L198.171432,35.0523328 L197.047661,32.2569964 Z M183.578106,29.4176927 L179.009632,29.4223882 L178.996481,35.0523328 L175.772374,35.0523328 L175.772374,20.8803591 L178.996481,20.8803591 L178.996481,26.6857459 L183.578106,26.6857459 L183.578106,20.8803591 L186.802213,20.8803591 L186.802213,35.0523328 L183.578106,35.0523328 L183.578106,29.4176927 Z M166.724088,22.0034453 C167.183311,22.2666086 167.587173,22.4779076 167.935674,22.6371289 C168.283962,22.7965636 168.822515,23.0356089 169.551121,23.3540515 C170.818067,23.8961722 171.898992,24.6331575 172.793893,25.5652209 C173.688583,26.4974977 174.13614,27.5535659 174.13614,28.7327851 C174.13614,29.8644086 173.934209,30.8523916 173.530347,31.6967339 C173.126486,32.5417165 172.572024,33.2027195 171.867387,33.6810236 C171.162538,34.1591143 170.382601,34.5138405 169.527364,34.744562 C168.672127,34.9754968 167.776589,35.0523328 166.778813,35.0523328 C165.923576,35.0523328 165.053068,35.0034566 164.229648,34.8282278 C163.406016,34.6532125 162.717075,34.433803 162.162826,34.1710666 C161.608364,33.9079033 161.109476,33.6492221 160.666161,33.3939558 C160.222635,33.1393298 159.897891,32.924189 159.692142,32.7485334 L159.383306,32.4857969 L161.616424,28.7086671 C161.806477,28.8683152 162.067799,29.0715038 162.400391,29.3182327 C162.733196,29.565602 163.322868,29.8962102 164.170256,30.3102709 C165.017433,30.7249719 165.765765,30.9320022 166.415253,30.9320022 C168.29987,30.9320022 169.242285,30.2865798 169.242285,28.9955215 C169.242285,28.724888 169.174834,28.4738904 169.040354,28.2427421 C168.905663,28.0118072 168.668097,27.7806589 168.327657,27.5495106 C167.987005,27.3185758 167.68623,27.1352365 167.424907,26.9994929 C167.163585,26.8643896 166.735967,26.6571458 166.142052,26.3781885 C165.548138,26.0994445 165.108641,25.8879321 164.823562,25.7445049 C163.635733,25.1552154 162.717075,24.4178032 162.067799,23.5333355 C161.418311,22.6488677 161.09378,21.696955 161.09378,20.6767437 C161.09378,18.9078081 161.743055,17.4615838 163.041819,16.3382842 C164.34037,15.2145576 165.821338,14.6528011 167.484299,14.6528011 C168.545284,14.6528011 169.582726,14.808394 170.59641,15.1191529 C171.609883,15.4296984 172.362245,15.736829 172.853285,16.039264 L173.565982,16.5173547 L171.760482,20.1030348 C171.617943,20.0074167 171.41983,19.8842657 171.166568,19.732728 C170.913094,19.5814038 170.437962,19.3782152 169.741173,19.1229489 C169.044172,18.868323 168.394897,18.7404764 167.793346,18.7404764 C167.04862,18.7404764 166.474644,18.9001245 166.070782,19.2187805 C165.666921,19.5376499 165.46499,19.9679315 165.46499,20.5094119 C165.46499,20.7806857 165.560016,21.0316833 165.750069,21.2626182 C165.940121,21.4937665 166.264653,21.7404954 166.724088,22.0034453 Z M153.543006,29.759186 L151.846108,29.759186 L151.846108,35.0523328 L148.622001,35.0523328 L148.622001,20.8803591 L153.712696,20.8803591 C155.138091,20.8803591 156.241075,21.357596 157.123462,22.097356 C158.005849,22.8375428 158.447043,23.9132468 158.447043,25.3244681 C158.447043,26.7361162 157.99991,27.8429815 157.106493,28.6457043 C156.212652,29.4480002 154.945493,29.759186 153.543006,29.759186 Z M154.39994,23.9841067 C153.941778,23.6938374 153.407255,23.4415591 152.694557,23.4415591 L151.846108,23.4415591 L151.846108,27.3687326 L152.864247,27.3687326 C153.576944,27.3687326 153.941778,27.1429201 154.39994,26.8526508 C154.858103,26.5623814 155.070215,25.9799219 155.070215,25.3197725 C155.070215,24.6480978 154.858103,24.274376 154.39994,23.9841067 Z M143.361617,20.8803591 L146.585723,20.8803591 L146.585723,35.0523328 L143.361617,35.0523328 L143.361617,20.8803591 Z M138.101232,29.4223882 L133.519607,29.4176927 L133.519607,35.0523328 L130.2955,35.0523328 L130.2955,20.8803591 L133.519607,20.8803591 L133.519607,26.6857459 L138.101232,26.6857459 L138.101232,20.8803591 L141.325339,20.8803591 L141.325339,35.0523328 L138.101232,35.0523328 L138.101232,29.4223882 Z M121.302151,22.0034453 C121.761162,22.2666086 122.165024,22.4779076 122.513736,22.6371289 C122.861813,22.7965636 123.400366,23.0356089 124.129183,23.3540515 C125.395918,23.8961722 126.476842,24.6331575 127.371956,25.5652209 C128.266434,26.4974977 128.714203,27.5535659 128.714203,28.7327851 C128.714203,29.8644086 128.512272,30.8523916 128.10841,31.6967339 C127.704548,32.5417165 127.149875,33.2027195 126.44545,33.6810236 C125.740388,34.1591143 124.960664,34.5138405 124.105427,34.744562 C123.25019,34.9754968 122.299715,35.0523328 121.301939,35.0523328 C120.446702,35.0523328 119.630918,35.0034566 118.80771,34.8282278 C117.983866,34.6532125 117.294926,34.433803 116.740888,34.1710666 C116.186215,33.9079033 115.687327,33.6492221 115.244224,33.3939558 C114.800485,33.1393298 114.475741,32.924189 114.270204,32.7485334 L113.961369,32.4857969 L116.194487,28.7086671 C116.38454,28.8683152 116.645862,29.0715038 116.978454,29.3182327 C117.311046,29.565602 117.900718,29.8962102 118.748319,30.3102709 C119.595283,30.7249719 120.343615,30.9320022 120.993315,30.9320022 C122.877721,30.9320022 123.820348,30.2865798 123.820348,28.9955215 C123.820348,28.724888 123.752684,28.4738904 123.618417,28.2427421 C123.483514,28.0118072 123.245948,27.7806589 122.90572,27.5495106 C122.564855,27.3185758 122.264292,27.1352365 122.00297,26.9994929 C121.741648,26.8643896 121.314029,26.6571458 120.720115,26.3781885 C120.1262,26.0994445 119.686704,25.8879321 119.401625,25.7445049 C118.213796,25.1552154 117.294926,24.4178032 116.645862,23.5333355 C115.996162,22.6488677 115.671842,21.696955 115.671842,20.6767437 C115.671842,18.9078081 116.320906,17.4615838 117.619882,16.3382842 C118.918221,15.2145576 120.399401,14.6528011 122.062361,14.6528011 C123.123135,14.6528011 124.160576,14.808394 125.174473,15.1191529 C126.187733,15.4296984 126.940095,15.736829 127.431348,16.039264 L128.144045,16.5173547 L126.338545,20.1030348 C126.196006,20.0074167 125.997681,19.8842657 125.744631,19.732728 C125.490944,19.5814038 125.015813,19.3782152 124.319236,19.1229489 C123.622023,18.868323 122.972747,18.7404764 122.371197,18.7404764 C121.626471,18.7404764 121.052707,18.9001245 120.648845,19.2187805 C120.244983,19.5376499 120.043052,19.9679315 120.043052,20.5094119 C120.043052,20.7806857 120.138079,21.0316833 120.328131,21.2626182 C120.518184,21.4937665 120.842504,21.7404954 121.302151,22.0034453 Z M108.235822,29.9299327 L106.369234,29.9299327 L106.369234,35.0523328 L103.145127,35.0523328 L103.145127,20.8803591 L108.235822,20.8803591 C109.661216,20.8803591 110.818925,21.357596 111.701312,22.097356 C112.5837,22.8375428 113.024893,23.9132468 113.024893,25.3244681 C113.024893,26.7361162 112.57776,27.8429815 111.684343,28.6457043 C110.790502,29.4480002 109.638308,29.9299327 108.235822,29.9299327 Z M108.977791,23.9841067 C108.519628,23.6938374 107.93038,23.6123058 107.217683,23.6123058 L106.369234,23.6123058 L106.369234,27.1979859 L107.217683,27.1979859 C107.93038,27.1979859 108.519628,27.1429201 108.977791,26.8526508 C109.435953,26.5623814 109.665034,26.0872788 109.665034,25.4269161 C109.665034,24.7554548 109.435953,24.274376 108.977791,23.9841067 Z M94.6606355,35.2230795 C92.6129035,35.2230795 90.9452767,34.6331498 89.6161811,33.2385763 C88.2866613,31.8444297 87.5336626,30.1348287 87.5336626,28.0517193 C87.5336626,26.0140712 88.3121147,24.2602894 89.6925415,22.8488548 C90.9090055,21.6045384 92.3295215,21.02464 93.9818762,20.904477 L93.9818762,23.8496437 C93.1385177,24.0171889 92.4451227,24.4925049 91.9455982,25.1490259 C91.3177458,25.9743726 90.9274592,26.9019539 90.9274592,28.0517193 C90.9274592,28.7916927 91.1798729,29.4369017 91.4064088,30.045827 C91.6325205,30.6547523 92.058442,31.2162954 92.6243575,31.6373994 C93.1898489,32.0585034 93.8346702,32.3203861 94.6606355,32.3203861 C95.8484643,32.3203861 96.6006145,31.9447434 97.2059829,31.1251594 C97.8109272,30.3055754 98.3938118,29.2127967 98.3938118,28.0517193 C98.3938118,26.9019539 97.9920711,25.9743726 97.3756728,25.1490259 C96.8839965,24.4910109 96.1906014,24.0150545 95.3393948,23.8485765 L95.3393948,20.9040502 C97.0091427,21.0227191 98.462324,21.5998429 99.6703035,22.840104 C101.038852,24.2462028 101.787608,26.0027592 101.787608,28.0517193 C101.787608,30.1119913 101.050306,31.8158297 99.7042415,33.2217151 C98.3577527,34.6276005 96.6629755,35.2230795 94.6606355,35.2230795 Z M82.9520372,29.4176927 L78.5401017,29.4176927 L78.5401017,35.0523328 L75.3159949,35.0523328 L75.3159949,20.8803591 L78.5401017,20.8803591 L78.5401017,26.6857459 L82.9520372,26.6857459 L82.9520372,20.8803591 L86.176144,20.8803591 L86.176144,35.0523328 L82.9520372,35.0523328 L82.9520372,29.4176927 Z M66.2295287,22.0111289 C66.6883276,22.2738653 67.0919773,22.4851643 67.4402657,22.6441722 C67.7883419,22.8036069 68.3264708,23.0426522 69.0548644,23.3608813 C70.3209626,23.9025752 71.4012505,24.6391336 72.2955159,25.5707701 C73.1895692,26.5026201 73.6371261,27.5578345 73.6371261,28.7362 C73.6371261,29.8673967 73.4351952,30.8547393 73.0315456,31.6986548 C72.6278959,32.5429971 72.0738586,33.2037867 71.3696458,33.6814505 C70.6652209,34.1593277 69.8857082,34.5140539 69.0311078,34.744562 C68.1762953,34.9752834 67.3195738,35.0523328 66.3224339,35.0523328 C65.4676214,35.0523328 64.5593566,35.0032432 63.736573,34.8282278 C62.9133652,34.6532125 62.2248487,34.4340164 61.6708114,34.17128 C61.116562,33.9085436 60.6180982,33.6498624 60.1752077,33.3948095 C59.731893,33.1401835 59.4071491,32.9252562 59.2016123,32.749814 L58.8929889,32.4870775 L61.1248344,28.7122955 C61.3146749,28.8717302 61.5759973,29.0749187 61.9083772,29.3216477 C62.2407572,29.56859 62.8302172,29.8989848 63.6771816,30.3130455 C64.5237217,30.7273196 65.2716296,30.9341365 65.9206932,30.9341365 C67.8042503,30.9341365 68.7460289,30.289141 68.7460289,28.9991499 C68.7460289,28.7285164 68.6785772,28.4775188 68.5443101,28.2465839 C68.4096188,28.0158625 68.1722652,27.7847142 67.8320371,27.5537793 C67.4915968,27.3230579 67.1910337,27.1397186 66.9299235,27.0041885 C66.6686012,26.8690851 66.241407,26.6618414 65.6477047,26.3830974 C65.0542145,26.1045669 64.61493,25.8932679 64.3300632,25.7500541 C63.1428707,25.1609781 62.2248487,24.4239928 61.5759973,23.5401653 C60.9267215,22.6561245 60.6024019,21.7046386 60.6024019,20.685281 C60.6024019,18.9174126 61.2512533,17.4720421 62.5493805,16.3491693 C63.8470835,15.2262965 65.3272031,14.6649668 66.9891028,14.6649668 C68.0494521,14.6649668 69.086257,14.8201328 70.0995174,15.1308918 C71.1121415,15.4414373 71.8640795,15.748141 72.3549074,16.050576 L73.0671804,16.5284533 L71.2627412,20.111999 C71.1204138,20.0163809 70.922301,19.8932299 70.669251,19.7416922 C70.4157768,19.590368 69.9410695,19.3873929 69.2447049,19.13234 C68.5481281,18.877714 67.8992767,18.7500809 67.2979383,18.7500809 C66.5536363,18.7500809 65.9800847,18.9095156 65.576435,19.2279581 C65.1729974,19.5468276 64.9710665,19.9766823 64.9710665,20.5179493 C64.9710665,20.7890096 65.0660928,21.0397938 65.2559333,21.2705152 C65.4459859,21.5016635 65.7700935,21.7483925 66.2295287,22.0111289 Z" id="形状" fill="#222222"></path>
                        </g>
                    </g>
                </g>
            </g>
        </g>
    </g>
</svg>