<?xml version="1.0" standalone="no"?><!DOCTYPE svg PUBLIC "-//W3C//DTD SVG 1.1//EN" "http://www.w3.org/Graphics/SVG/1.1/DTD/svg11.dtd"><svg t="1555387354508" class="icon" style="" viewBox="0 0 1649 1024" version="1.1" xmlns="http://www.w3.org/2000/svg" p-id="1535" xmlns:xlink="http://www.w3.org/1999/xlink" width="206.125" height="128"><defs><style type="text/css"></style></defs><path d="M0 0h1649.777778v1024H0z" fill="#0077A6" p-id="1536"></path><path d="M204.8 358.4l-25.6-65.422222-25.6 65.422222zM861.866667 298.666667c-5.688889-2.844444-11.377778-2.844444-19.911111-2.844445h-48.355556v36.977778h48.355556c8.533333 0 14.222222 0 19.911111-2.844444 5.688889-2.844444 8.533333-8.533333 8.533333-17.066667-2.844444-5.688889-5.688889-11.377778-8.533333-14.222222zM1208.888889 292.977778l-25.6 65.422222h51.2zM1638.4 665.6v-130.844444H665.6l-34.133333 36.977777-34.133334-36.977777h-241.777777v281.6h236.088888l36.977778-36.977778 34.133334 36.977778h150.755555v-62.577778h8.533333c19.911111 0 36.977778-2.844444 51.2-8.533334v71.111112H1536c68.266667 0 110.933333-39.822222 110.933333-105.244445 0-17.066667-2.844444-31.288889-8.533333-45.511111z m-816.355556 42.666667h-51.2v62.577777H682.666667L631.466667 711.111111l-54.044445 62.577778h-176.355555v-196.266667h179.2l51.2 59.733334 54.044444-59.733334H824.888889c48.355556 0 76.8 22.755556 76.8 65.422222 0 45.511111-28.444444 65.422222-79.644445 65.422223z m264.533334-11.377778c5.688889 11.377778 8.533333 19.911111 8.533333 36.977778v39.822222h-48.355555v-31.288889c0-11.377778 0-25.6-5.688889-34.133333-5.688889-5.688889-14.222222-8.533333-31.288889-8.533334H967.111111v71.111111h-48.355555v-196.266666H1024c22.755556 0 36.977778 0 54.044444 8.533333 17.066667 11.377778 25.6 25.6 25.6 42.666667 0 28.444444-14.222222 42.666667-28.444444 51.2 0 8.533333 8.533333 14.222222 11.377778 19.911111z m176.355555-73.955556h-102.4V654.222222h99.555556v42.666667h-99.555556v34.133333h102.4v42.666667h-150.755555v-196.266667h150.755555v45.511111z m110.933334 150.755556h-88.177778v-45.511111h88.177778c8.533333 0 14.222222 0 17.066666-2.844445s5.688889-5.688889 5.688889-11.377777-2.844444-8.533333-5.688889-11.377778-8.533333-2.844444-14.222222-2.844445h-8.533333c-36.977778 0-85.333333-2.844444-85.333334-62.577777 0-31.288889 17.066667-59.733333 65.422223-59.733334h85.333333v45.511111h-82.488889c-8.533333 0-11.377778 0-17.066667 2.844445-2.844444 2.844444-5.688889 5.688889-5.688888 11.377778s2.844444 11.377778 8.533333 11.377777c2.844444 2.844444 8.533333 2.844444 17.066667 2.844445h25.6c25.6 0 39.822222 5.688889 51.2 17.066666 11.377778 11.377778 14.222222 22.755556 14.222222 42.666667-2.844444 39.822222-25.6 62.577778-71.111111 62.577778z m162.133333 0h-88.177778v-45.511111H1536c8.533333 0 14.222222 0 17.066667-2.844445s5.688889-5.688889 5.688889-11.377777-2.844444-8.533333-5.688889-11.377778c-2.844444-2.844444-8.533333-2.844444-14.222223-2.844445h-8.533333c-36.977778 0-85.333333-2.844444-85.333333-62.577777 0-31.288889 17.066667-59.733333 65.422222-59.733334h88.177778v45.511111h-82.488889c-8.533333 0-11.377778 0-17.066667 2.844445-2.844444 2.844444-5.688889 5.688889-5.688889 11.377778s2.844444 11.377778 8.533334 11.377777c2.844444 2.844444 8.533333 2.844444 17.066666 2.844445h25.6c25.6 0 39.822222 5.688889 51.2 17.066666s14.222222 22.755556 14.222223 42.666667c-2.844444 39.822222-28.444444 62.577778-73.955556 62.577778z" fill="#FFFFFF" p-id="1537"></path><path d="M449.422222 622.933333v28.444445h96.711111v45.511111h-96.711111v31.288889h102.4l48.355556-54.044445-45.511111-51.2zM770.844444 665.6h51.2c17.066667 0 25.6-8.533333 25.6-22.755556s-8.533333-22.755556-25.6-22.755555H768l2.844444 45.511111zM722.488889 745.244444v-139.377777l-59.733333 68.266666zM1032.533333 477.866667c25.6 11.377778 48.355556 14.222222 62.577778 14.222222h82.488889l17.066667-42.666667h31.288889l17.066666 42.666667h307.2v-284.444445H1097.955556c-25.6 0-45.511111 5.688889-65.422223 14.222223v-14.222223h-597.333333l-25.6 59.733334-25.6-59.733334H116.622222l-113.777778 281.6h145.066667l17.066667-42.666666h31.288889l17.066666 42.666666h822.044445l-2.844445-11.377777z m-492.088889-28.444445h-48.355555v-139.377778l-56.888889 139.377778h-39.822222l-56.888889-139.377778v139.377778H241.777778l-17.066667-42.666666H136.533333l-19.911111 42.666666H65.422222l79.644445-196.266666h68.266666l68.266667 170.666666v-170.666666h73.955556l54.044444 125.155555 51.2-125.155555h76.8v196.266666h2.844444z m176.355556-153.6h-102.4v31.288889h99.555556V369.777778h-99.555556v34.133333h102.4v42.666667h-150.755556V253.155556h150.755556v42.666666z m196.266667 76.8c5.688889 11.377778 8.533333 19.911111 8.533333 36.977778v39.822222h-48.355556v-31.288889c0-11.377778 0-25.6-5.688888-34.133333-5.688889-5.688889-17.066667-8.533333-31.288889-8.533333h-42.666667v68.266666h-51.2V253.155556h102.4c22.755556 0 36.977778 0 54.044444 8.533333 17.066667 11.377778 22.755556 25.6 22.755556 42.666667 0 31.288889-19.911111 45.511111-28.444444 51.2 8.533333 5.688889 17.066667 11.377778 19.911111 17.066666z m79.644444 76.8h-51.2V253.155556h48.355556l2.844444 196.266666z m17.066667-99.555555c0-36.977778 8.533333-56.888889 25.6-76.8 14.222222-17.066667 36.977778-22.755556 65.422222-22.755556h42.666667v45.511111h-42.666667c-17.066667 0-25.6 2.844444-31.288889 11.377778-8.533333 8.533333-11.377778 22.755556-11.377778 39.822222s2.844444 34.133333 11.377778 42.666667c5.688889 8.533333 19.911111 8.533333 28.444445 8.533333h14.222222l62.577778-150.755555h68.266666l68.266667 170.666666v-170.666666h71.111111v2.844444l71.111111 122.311111V253.155556h48.355556v196.266666h-65.422223v-2.844444L1359.644444 312.888889v136.533333h-91.022222v-2.844444l-17.066666-39.822222h-85.333334l-17.066666 42.666666h-51.2c-14.222222 0-45.511111-2.844444-65.422223-22.755555-19.911111-19.911111-22.755556-39.822222-22.755555-76.8zM1012.622222 622.933333h-48.355555v36.977778h48.355555c8.533333 0 14.222222 0 19.911111-2.844444 5.688889-2.844444 8.533333-8.533333 8.533334-17.066667s-2.844444-11.377778-8.533334-14.222222c-2.844444-2.844444-11.377778-2.844444-19.911111-2.844445z" fill="#FFFFFF" p-id="1538"></path></svg>