<?xml version="1.0" standalone="no"?><!DOCTYPE svg PUBLIC "-//W3C//DTD SVG 1.1//EN" "http://www.w3.org/Graphics/SVG/1.1/DTD/svg11.dtd"><svg t="1555388364013" class="icon" style="" viewBox="0 0 1025 1024" version="1.1" xmlns="http://www.w3.org/2000/svg" p-id="2255" xmlns:xlink="http://www.w3.org/1999/xlink" width="128.125" height="128"><defs><style type="text/css"></style></defs><path d="M965.444 206.396c27.708 0 50.252 22.542 50.252 50.252v515.8c0 27.708-22.542 50.252-50.252 50.252H61.98c-27.708 0-50.252-22.542-50.252-50.252v-515.8c0-27.708 22.542-50.252 50.252-50.252h903.464m0-10H61.98c-33.276 0-60.252 26.976-60.252 60.252v515.8c0 33.278 26.976 60.252 60.252 60.252h903.464c33.278 0 60.252-26.974 60.252-60.252v-515.8c0-33.276-26.976-60.252-60.252-60.252z" fill="#E30613" p-id="2256"></path><path d="M515.136 710.344c45.292 41.734 106.122 67.044 172.28 67.044 142.074 0 257.076-115.882 257.076-258.414 0-142.964-115.002-258.848-257.076-258.848-66.158 0-126.986 25.306-172.28 67.044-51.944 47.504-84.802 115.886-84.802 191.804 0 75.926 32.86 144.31 84.802 191.37z" fill="#FAB31E" p-id="2257"></path><path d="M598.172 491.45c-0.888-9.324-2.662-18.204-4.446-27.528h-157.172c1.776-9.324 4.434-18.206 7.098-27.086h142.532c-3.116-9.318-6.666-18.646-10.664-27.526h-120.764c4.44-9.318 9.322-18.646 14.652-27.526h91.02c-5.774-9.324-12.43-18.65-19.538-27.084H488.94a256.696 256.696 0 0 1 26.194-27.526c-45.726-41.294-106.114-67.044-172.712-67.044-141.634 0-257.076 115.884-257.076 258.848 0 142.532 115.442 258.414 257.076 258.414 66.6 0 126.986-25.31 172.712-67.044a247.63 247.63 0 0 0 25.756-27.088H488.94c-7.104-8.878-13.32-17.758-19.534-27.526h91.02a206.034 206.034 0 0 0 15.092-27.528h-120.764c-4.002-8.878-7.992-17.76-11.104-27.088h142.532c3.106-8.878 5.322-18.2 7.542-27.526 1.784-8.878 3.556-18.208 4.446-27.528 0.886-8.88 1.332-17.758 1.332-27.088 0.002-9.32-0.444-18.646-1.33-27.526z" fill="#E40520" p-id="2258"></path><path d="M910.3 578.918c0-4.878 3.548-8.43 7.992-8.43 4.88 0 8.434 3.55 8.434 8.43 0 4.44-3.552 8.442-8.434 8.442-4.442 0-7.992-4.002-7.992-8.442z m7.992 6.214c3.55 0 6.658-2.662 6.658-6.214 0-3.554-3.108-6.218-6.658-6.218-3.108 0-6.216 2.664-6.216 6.218 0 3.552 3.11 6.214 6.216 6.214z m-0.888-2.662h-1.776v-7.108h4.884c0.888 0.452 0.888 1.34 0.888 2.226 0 0.442-0.442 1.328-1.332 1.778l1.776 3.104h-2.218l-0.888-2.664h-1.332v2.664-3.992h0.888c0.444 0 0.892 0 0.892-0.448 0.44 0 0.44-0.442 0.44-0.886 0 0 0-0.442-0.44-0.442 0-0.452-0.45 0-0.892 0h-0.888v5.768h-0.002z" fill="#FFFFFF" p-id="2259"></path><path d="M427.67 593.572c-8.432 2.216-14.648 3.55-20.864 3.55-13.324 0-21.316-8.44-21.316-23.534 0-3.102 0.444-6.216 0.888-9.768l1.776-10.216 1.334-8.43 11.988-72.818h26.642l-3.114 15.984h16.876l-3.996 26.642h-16.87l-7.104 43.51c-0.45 2.226-0.45 3.55-0.45 4.44 0 5.78 2.664 7.992 9.33 7.992 3.102 0 5.766-0.438 8.43-0.888l-3.55 23.536zM513.81 592.686c-9.766 2.664-18.644 3.992-28.42 3.992-30.19 0-47.504-15.984-47.504-47.512 0-36.846 20.424-63.488 48.836-63.488 22.65 0 37.298 15.1 37.298 38.626 0 7.99-0.886 15.544-3.106 26.198h-55.502c-0.448 1.778-0.448 2.666-0.448 3.552 0 12.432 8.438 18.644 24.422 18.644 10.214 0 19.094-2.21 28.862-6.652l-4.438 26.64z m-16.432-63.494v-5.328c0-8.878-4.876-13.766-13.318-13.766-8.878 0-15.098 6.664-17.758 19.094h31.076zM214.552 594.9H187.024l15.984-100.788-35.964 100.788h-19.092l-2.222-100.34-16.87 100.34H101.776l21.756-130.978h40.406l0.886 80.804 27.082-80.804h44.4l-21.754 130.978zM281.598 547.388c-2.666-0.438-3.552-0.438-5.328-0.438-15.988 0-23.978 6.216-23.978 15.982 0 6.666 3.996 11.106 10.212 11.106 13.32 0.002 18.65-11.104 19.094-26.65z m22.198 47.512h-23.974l0.444-11.096c-6.218 8.432-14.654 12.874-29.304 12.874-13.322 0-24.866-11.982-24.866-29.304 0-4.876 0.892-9.316 2.218-13.768 4.44-16.424 20.87-26.636 46.18-27.076 3.104 0 7.988 0 12.43 0.44 0.888-3.552 0.888-4.88 0.888-7.106 0-7.104-5.772-9.316-18.65-9.316-7.992 0-16.872 1.324-23.088 3.55l-3.992 0.886-1.776 0.44 3.994-23.974c12.876-3.99 22.202-5.772 32.414-5.772 23.974 0 36.85 11.1 36.85 31.522 0 5.328 0.444 9.33-1.332 20.872l-6.216 38.182-0.888 6.664-0.444 5.33-0.444 3.55-0.444 3.102zM647.896 489.234c7.99 0 15.096 2.216 24.86 7.104l4.888-28.42c-2.662-1.332-3.552-1.332-7.106-2.662l-11.102-3.11c-3.55-0.888-7.988-1.332-12.876-1.332-13.762 0-21.752 0.444-30.188 5.33-4.44 3.108-10.212 7.102-16.428 14.208l-3.552-0.888-28.418 19.978 1.332-11.098h-29.302l-17.314 106.558h27.97l10.21-57.278s3.996-7.992 5.772-10.654c5.326-6.656 9.766-6.656 15.542-6.656h2.222c-0.894 6.216-1.338 12.87-1.338 20.424 0 34.626 19.54 56.386 49.73 56.386 7.548 0 14.208-0.886 24.42-3.55l4.882-30.19c-8.88 4.878-16.874 7.106-23.532 7.106-16.426 0-26.192-12.432-26.192-31.978 0.004-28.856 14.654-49.278 35.52-49.278zM883.662 463.922l-6.214 37.294c-6.662-10.206-14.65-15.096-25.306-15.096-14.658 0-28.42 8.44-36.856 24.426v-0.45l-17.76-10.658 1.776-11.098h-29.746l-16.872 106.558h27.53l9.32-57.278s7.104-7.992 8.88-10.654c4.44-5.326 8.88-6.218 12.432-6.656-3.108 8.878-4.882 19.538-4.882 31.518 0 26.648 13.764 44.406 34.19 44.406 10.212 0 18.204-3.55 25.75-11.992l-1.33 10.656h26.194l21.31-130.978h-28.416v0.002zM849.478 569.6c-9.326 0-14.21-7.104-14.21-20.874 0-20.872 8.874-35.966 21.754-35.966 9.772 0 14.654 7.552 14.654 20.874 0 21.31-8.88 35.966-22.198 35.966zM721.158 547.388c-2.666-0.438-3.554-0.438-5.328-0.438-15.984 0-23.976 6.216-23.976 15.982 0 6.666 3.998 11.106 10.212 11.106 13.318 0.002 18.648-11.104 19.092-26.65z m22.198 47.512h-24.42l0.89-11.096c-6.216 8.432-14.652 12.874-29.302 12.874-13.764 0-25.756-11.544-25.756-29.304 0-25.31 19.096-40.844 49.286-40.844 3.108 0 7.992 0 11.988 0.44 0.886-3.552 1.332-4.88 1.332-7.106 0-7.104-5.77-9.316-19.092-9.316-7.546 0-16.872 1.324-23.084 3.55l-3.552 0.886-1.78 0.44 3.998-23.974c12.876-3.99 22.198-5.772 32.41-5.772 23.974 0 36.41 11.1 36.41 31.522 0 5.328 0.882 9.33-1.336 20.872l-5.774 38.182-0.886 6.664-0.888 5.33-0.444 3.55v3.102zM361.96 510.984c5.328 0 12.876 0.45 20.868 1.776l3.996-24.862c-7.992-0.886-18.65-2.22-24.864-2.22-31.08 0-41.294 16.876-41.294 36.41 0 12.874 5.776 22.2 20.87 29.304 11.098 5.326 12.876 6.214 12.876 11.104 0 6.656-5.772 10.656-16.428 10.656-8.436 0-16.426-1.338-25.308-4.44l-3.108 24.412 0.444 0.448 5.328 0.888c1.774 0.44 4 0.888 7.106 1.328 6.66 0.448 12.432 0.888 15.982 0.888 31.082 0 43.958-11.982 43.958-35.52 0-14.658-7.106-23.536-20.87-29.752-11.988-5.326-13.32-6.214-13.32-11.094 0-4.886 5.328-9.326 13.764-9.326z" fill="#06326E" p-id="2260"></path><path d="M685.198 459.484l-4.886 28.414c-9.772-4.882-16.876-7.104-24.868-7.104-20.866 0-35.52 20.424-35.52 49.288 0 19.974 9.77 31.964 26.196 31.964 6.66 0 14.652-2.212 23.532-6.664l-4.882 29.752c-10.212 2.664-16.872 4-24.418 4-30.192 0-48.842-21.76-48.842-56.838 0-46.618 25.754-79.47 62.604-79.47 4.882 0 9.324 0.444 12.88 1.332l11.098 2.664c3.552 1.33 4.436 1.774 7.106 2.662zM595.51 479.018h-2.666c-9.33 0-14.654 4.44-23.092 17.32l2.662-16.432h-25.302l-17.316 106.564h27.968c10.212-65.27 12.876-76.374 26.196-76.374h1.776c2.664-12.872 6.216-22.2 10.66-30.636l-0.886-0.442zM434.774 585.132c-7.542 2.664-13.756 3.55-19.974 3.55-14.21 0-22.204-7.99-22.204-23.524 0-2.664 0.444-6.226 0.888-9.328l1.778-10.656 1.33-8.442 11.994-72.812h27.526l-3.114 15.984h14.208l-3.55 26.2h-14.208l-7.542 44.396c-0.448 1.778-0.448 3.104-0.448 4.442 0 5.328 2.664 7.552 9.328 7.552 3.102 0 5.772 0 7.548-0.888l-3.56 23.526zM327.774 513.648c0 13.32 6.214 22.646 20.866 29.752 11.546 5.326 13.322 7.102 13.322 11.542 0 6.664-4.882 9.768-15.984 9.768-8.436 0-15.984-1.328-24.864-3.99l-4 24.412 1.334 0.45 4.886 0.888c1.774 0.438 3.996 0.888 7.548 0.888 6.216 0.886 11.542 0.886 15.096 0.886 29.304 0 43.068-11.102 43.068-35.52 0-14.656-5.772-23.096-19.536-29.75-11.988-5.326-13.322-6.666-13.322-11.542 0-5.776 4.886-8.442 13.766-8.442 5.326 0 12.876 0.45 19.978 1.338l3.996-24.424c-7.104-1.332-18.202-2.222-24.418-2.222-31.082 0.002-42.18 16.43-41.736 35.966zM897.87 586.47h-26.194l1.33-10.218c-7.546 7.992-15.54 11.544-25.75 11.544-20.43 0-33.748-17.308-33.748-43.958 0-35.516 20.87-65.708 45.292-65.708 11.1 0 19.092 4.884 26.638 14.656l6.216-37.304h27.532l-21.316 130.988z m-40.848-24.862c12.876 0 21.758-15.108 21.758-35.964 0-13.772-4.886-20.874-14.65-20.874-12.434 0-21.762 14.654-21.762 35.518 0 14.214 4.888 21.32 14.654 21.32zM520.026 584.244c-9.766 3.116-18.644 4.44-28.864 4.44-31.076 0-47.06-16.422-47.06-47.948 0-36.406 20.422-63.496 48.4-63.496 23.084 0 37.736 15.096 37.736 38.63 0 7.992-0.89 15.536-3.552 26.642h-55.058c-0.444 1.324-0.444 2.212-0.444 3.1 0 12.444 8.436 18.658 24.42 18.658 10.214 0 19.094-1.776 28.864-6.664l-4.442 26.638z m-15.544-63.494v-5.326c0-8.88-4.878-13.762-13.32-13.762-8.878 0-15.094 6.662-17.758 19.088h31.078zM221.656 586.47H194.13l15.982-100.792-35.964 100.792h-19.094l-2.218-99.906-16.874 99.906H110.212l21.756-130.988h39.96l1.332 81.252 26.638-81.252h43.514l-21.756 130.988zM290.476 538.96c-2.664 0-3.996-0.452-6.214-0.452-15.542 0-23.534 5.778-23.534 16.434 0 6.664 3.552 10.656 9.768 10.656 11.546 0.002 19.538-10.654 19.98-26.638z m20.424 47.51h-23.088l0.444-11.108c-7.104 8.88-16.43 12.882-29.304 12.882-15.094 0-25.306-11.542-25.306-28.866 0-26.2 17.758-41.292 48.836-41.292 3.108 0 7.108 0.448 11.546 0.886 0.888-3.55 0.888-4.876 0.888-6.654 0-7.102-4.882-9.766-17.76-9.766-7.992 0-16.872 0.888-23.086 2.664l-3.996 1.326-2.664 0.448 3.996-23.976c13.762-3.998 23.09-5.332 33.3-5.332 23.974 0 36.852 10.658 36.852 31.084 0 5.328-0.444 9.318-2.218 21.31l-6.22 37.744-0.888 6.654-0.444 5.328-0.442 3.998-0.446 2.67zM730.038 538.96c-3.11 0-4.44-0.452-6.216-0.452-15.982 0-23.974 5.778-23.974 16.434 0 6.664 3.996 10.656 10.212 10.656 11.098 0.002 19.534-10.654 19.978-26.638z m20.42 47.51h-23.086l0.444-11.108c-7.102 8.88-16.426 12.882-29.3 12.882-15.096 0-25.306-11.542-25.306-28.866 0-26.2 17.758-41.292 48.836-41.292 3.108 0 7.104 0.448 11.102 0.886 0.886-3.55 1.33-4.876 1.33-6.654 0-7.102-4.882-9.766-17.76-9.766-7.99 0-17.312 0.888-23.532 2.664l-3.55 1.326-2.664 0.448 3.996-23.976c13.764-3.998 23.086-5.332 33.296-5.332 23.976 0 36.412 10.658 36.412 31.084 0 5.328 0 9.318-2.226 21.31l-5.766 37.744-0.892 6.654-0.886 5.328-0.446 3.998v2.67h-0.002zM825.052 479.018h-2.664c-9.324 0-14.65 4.44-23.088 17.32l2.662-16.432H776.66l-16.876 106.564h27.53c10.212-65.27 12.876-76.374 26.196-76.374h1.778c2.662-12.872 6.214-22.2 10.654-30.636l-0.89-0.442z" fill="#FFFFFF" p-id="2261"></path></svg>