<?xml version="1.0" standalone="no"?><!DOCTYPE svg PUBLIC "-//W3C//DTD SVG 1.1//EN" "http://www.w3.org/Graphics/SVG/1.1/DTD/svg11.dtd"><svg t="1555387875867" class="icon" style="" viewBox="0 0 1649 1024" version="1.1" xmlns="http://www.w3.org/2000/svg" p-id="2295" xmlns:xlink="http://www.w3.org/1999/xlink" width="206.125" height="128"><defs><style type="text/css"></style></defs><path d="M0 0h1649.777778v1024H0z" fill="#3F58A2" p-id="2296"></path><path d="M631.466667 708.266667l65.422222-389.688889h105.244444l-65.422222 389.688889h-105.244444z m489.244444-378.311111c-19.911111-8.533333-54.044444-17.066667-93.866667-17.066667-105.244444 0-179.2 54.044444-179.2 128 0 56.888889 54.044444 88.177778 93.866667 105.244444 39.822222 19.911111 54.044444 31.288889 54.044445 48.355556 0 25.6-34.133333 36.977778-62.577778 36.977778-42.666667 0-65.422222-5.688889-99.555556-19.911111l-14.222222-5.688889-14.222222 88.177777c25.6 11.377778 71.111111 19.911111 116.622222 19.911112 110.933333 0 184.888889-51.2 184.888889-133.688889 0-45.511111-28.444444-76.8-88.177778-105.244445-36.977778-17.066667-59.733333-31.288889-59.733333-48.355555 0-17.066667 19.911111-34.133333 59.733333-34.133334 34.133333 0 59.733333 5.688889 79.644445 14.222223l8.533333 5.688888 14.222222-82.488888m273.066667-8.533334h-82.488889c-25.6 0-45.511111 5.688889-56.888889 31.288889l-156.444444 355.555556h110.933333s17.066667-48.355556 22.755555-59.733334h136.533334c2.844444 14.222222 14.222222 56.888889 14.222222 56.888889H1479.111111l-85.333333-384m-130.844445 250.311111c8.533333-22.755556 42.666667-108.088889 42.666667-108.088889s8.533333-22.755556 14.222222-36.977777l8.533334 34.133333s19.911111 93.866667 25.6 110.933333h-91.022223z m-719.644444-253.155555l-102.4 264.533333-14.222222-51.2c-19.911111-62.577778-79.644444-128-147.911111-162.133333l93.866666 338.488889H483.555556l170.666666-389.688889h-110.933333" fill="#FFFFFF" p-id="2297"></path><path d="M344.177778 318.577778H170.666667v8.533333c133.688889 31.288889 221.866667 110.933333 256 201.955556l-36.977778-179.2c-5.688889-22.755556-22.755556-28.444444-45.511111-31.288889" fill="#FAA61A" p-id="2298"></path></svg>