<?xml version="1.0" standalone="no"?><!DOCTYPE svg PUBLIC "-//W3C//DTD SVG 1.1//EN" "http://www.w3.org/Graphics/SVG/1.1/DTD/svg11.dtd"><svg t="1620471329211" class="icon" viewBox="0 0 1024 1024" version="1.1" xmlns="http://www.w3.org/2000/svg" p-id="3991" width="20" height="20" xmlns:xlink="http://www.w3.org/1999/xlink"><defs><style type="text/css"></style></defs><path d="M815.616 146.432H208.384C150.016 146.432 102.4 194.048 102.4 252.416v521.728c0 58.368 47.616 105.984 105.984 105.984h607.744c58.368 0 105.984-47.616 105.984-105.984V252.416c-0.512-58.368-48.128-105.984-106.496-105.984z m47.616 452.096h-236.032c-47.616 0-86.016-38.4-86.016-86.016s38.4-86.016 86.016-86.016h236.032v172.032z m0 175.104c0 26.112-20.992 47.616-47.616 47.616H208.384c-26.112 0-47.616-20.992-47.616-47.616V252.416c0-26.112 20.992-47.616 47.616-47.616h607.744c26.112 0 47.616 20.992 47.616 47.616V368.64h-236.032c-79.36 0-144.384 65.024-144.384 144.384s65.024 144.384 144.384 144.384h236.032v116.224h-0.512z m-215.552-260.608c0-20.992 16.896-38.4 38.4-38.4s38.4 16.896 38.4 38.4c0 20.992-16.896 38.4-38.4 38.4-21.504-0.512-38.4-17.408-38.4-38.4z" fill="#EC7A5D" p-id="3992"></path></svg>