<?xml version="1.0" encoding="UTF-8" standalone="no"?>
<!DOCTYPE svg PUBLIC "-//W3C//DTD SVG 1.1//EN" "http://www.w3.org/Graphics/SVG/1.1/DTD/svg11.dtd">
<svg t="1611308021607" class="icon" viewBox="0 0 1024 1024" version="1.1" xmlns="http://www.w3.org/2000/svg" p-id="1949" width="32" height="32" xmlns:xlink="http://www.w3.org/1999/xlink"><defs><style type="text/css"/></defs><path d="M620.08631778 781.94422078h-25.5279243V603.45243094c0-19.68909054-22.13325352-39.03871403-44.60597411-39.03871403H473.50443329c-22.54061401 0-44.60597411 19.34962348-44.6059741 39.03871402v178.49178985H403.37053489V603.45243094c0-36.93401813 37.00191157-64.56663833 70.13389841-64.56663833H550.02031279c33.13198686 0 70.13389841 27.6326202 70.1338984 64.56663833v178.49178984z" fill="#2c2c2c" p-id="1950"/><path d="M711.67453555 794.70818293h-399.89221842c-31.02729097 0-56.21574819-28.58312801-56.21574819-63.75191733V412.19667893h25.52792431v318.75958668c0 20.70749179 14.05393705 38.22399303 30.68782388 38.22399302h399.89221842c16.63388684 0 30.68782389-17.51650124 30.68782389-38.22399303V412.19667893h25.5279243v318.75958668c0 35.10089591-25.25635063 63.75191734-56.21574819 63.75191732z" fill="#2c2c2c" p-id="1951"/><path d="M804.9600887 467.39402589c-2.85152347 0-5.70304692-0.95050781-8.07931647-2.91941687L529.10914076 243.54943436c-17.38071443-14.12183047-17.38071443-14.12183047-34.82932226 0.06789342L226.57608044 464.47460902c-5.43147326 4.48096543-13.44289631 3.66624444-17.92386174-1.6973354-4.48096543-5.43147326-3.73413788-13.44289631 1.6973354-17.92386173L478.12118557 223.86034381c27.97208726-22.74429426 39.24239426-22.74429426 67.14658812-0.06789341L813.10729858 444.78551847c5.43147326 4.48096543 6.17830083 12.49238848 1.69733539 17.92386174-2.51205638 3.12309712-6.17830083 4.68464569-9.84454528 4.68464569z" fill="#2c2c2c" p-id="1952"/></svg>