<?xml version="1.0" standalone="no"?><!DOCTYPE svg PUBLIC "-//W3C//DTD SVG 1.1//EN" "http://www.w3.org/Graphics/SVG/1.1/DTD/svg11.dtd"><svg t="1620466892292" class="icon" viewBox="0 0 1024 1024" version="1.1" xmlns="http://www.w3.org/2000/svg" p-id="26568" xmlns:xlink="http://www.w3.org/1999/xlink" width="32" height="32"><defs><style type="text/css"></style></defs><path d="M383.366704 253.175088h240.30396c74.333375 0 131.119199-162.948506 131.119199-162.948506 0-48.840683-4.87432-85.788026-87.494038-88.420159-82.522232-2.632133-102.360713 58.345606-161.681184 58.345606-60.68528 0-91.296007-47.865819-165.970584-58.345606C264.774507-8.673364 252.198762 41.337155 252.198762 90.080352c0.097486 0 56.737081 163.094736 131.167942 163.094736v-0.048743z m253.464623 50.400465h-253.464623c-280.56584 0-349.48872 557.378454-349.48872 557.378454 0 73.212281 58.686809 146.814508 131.021713 146.814509H855.152104c72.383647 0 131.070456-73.602227 131.070456-146.814509 0 0-68.874137-557.378454-349.48872-557.378454z m28.660999 428.355213c17.011376 0 30.659471 13.940554 30.659471 31.000673a30.854443 30.854443 0 0 1-30.659471 30.95193h-124.148922v81.303652a30.854443 30.854443 0 0 1-30.610727 30.951929 30.756957 30.756957 0 0 1-30.561984-30.951929V793.932112H354.998164a30.513241 30.513241 0 0 1-27.296191-15.207878 31.341875 31.341875 0 0 1 0-31.585591 30.464498 30.464498 0 0 1 27.296191-15.110391h125.075042v-39.33576H355.046907a30.513241 30.513241 0 0 1-27.491163-15.110391 31.341875 31.341875 0 0 1 0-31.683077 30.464498 30.464498 0 0 1 27.491163-15.110391h84.569446l-86.519174-155.490798a31.293132 31.293132 0 0 1 11.210935-42.260351 30.464498 30.464498 0 0 1 41.77292 11.210935l104.261697 186.540214h5.264266l104.164211-186.540214a30.367012 30.367012 0 0 1 41.772919-11.210935c14.622959 8.676289 19.594765 27.44242 11.210936 42.260351l-86.519174 155.490798h79.402667c16.913889 0 30.610728 13.843068 30.610727 30.951929a30.854443 30.854443 0 0 1-30.610727 30.95193H541.245918v39.33576h124.295151l-0.097486-0.097486z" fill="#fcc900" p-id="26569"></path></svg>