<?xml version="1.0" standalone="no"?><!DOCTYPE svg PUBLIC "-//W3C//DTD SVG 1.1//EN" "http://www.w3.org/Graphics/SVG/1.1/DTD/svg11.dtd"><svg t="1620471576303" class="icon" viewBox="0 0 1024 1024" version="1.1" xmlns="http://www.w3.org/2000/svg" p-id="1256" width="20" height="20" xmlns:xlink="http://www.w3.org/1999/xlink"><defs><style type="text/css"></style></defs><path d="M611.1 237.7h173.4l-60.8-59c-5.4-5.3-9-12.5-9-17.9 0-7.2 3.6-14.3 9-17.9 10.7-10.7 28.6-10.7 37.5 0l109.1 105.5c5.4 5.3 7.2 10.7 7.2 17.9 0 7.2-3.6 14.3-9 17.9L761.2 389.7c-5.4 5.4-12.5 7.2-19.7 7.2-7.2 0-14.3-3.6-19.7-7.2-5.3-5.3-8.9-12.5-8.9-19.7 0-7.2 3.6-14.3 8.9-19.7l60.8-59h-175c-14.3 0-26.8-12.5-26.8-26.8 3.5-14.3 16-25 30.3-26.8z m21.5 168.1c0 7.2-1.8 14.3-3.6 17.9L555.7 497h51.8c14.3 0 25 12.5 25 26.8s-10.7 26.8-25 26.8h-76.9v50.1h76.9c8.9 0 17.9 3.6 23.2 12.5 5.4 9 5.4 17.9 0 26.8-5.3 7.2-14.3 12.5-23.2 12.5h-76.9v91.2c0 14.3-12.5 26.8-26.8 26.8S477 758 477 743.7v-91.2h-76.9c-8.9 0-17.9-3.6-23.3-12.5-5.3-9-5.3-17.9 0-26.8 5.4-7.2 14.3-12.5 23.3-12.5H477v-50.1h-76.9c-14.3 0-25-12.5-25-26.8s10.7-26.8 25-26.8h53.6l-73.3-73.3c-3.6-3.6-7.2-10.7-7.2-17.9 0-5.4 1.8-12.5 7.2-17.9l1.8-1.8-1.8-1.8h3.6c8.9-7.2 23.2-5.4 32.2 3.6l85.8 85.8 85.9-85.8c10.7-10.7 26.8-10.7 37.5 0 3.6 3.6 7.2 10.8 7.2 17.9zM502.1 956.6c-112.7 0-221.7-44.7-304-125.2C74.7 708 37.2 523.8 106.9 361.1 174.8 200.2 330.4 98.2 502.1 98.2c19.7 0 35.8 16.1 35.8 35.8 0 19.7-16.1 35.8-35.8 35.8-143 0-273.6 85.8-329 218.2-57.2 134.1-26.8 287.9 76.9 391.6 84.1 84 203.9 121.6 321.9 98.3C688.1 854.6 786.5 776 833 665.1c17.9-44.7 28.6-91.2 28.6-139.5 0-39.3-5.4-76.9-17.9-114.4-7.2-17.9 3.6-39.3 21.5-44.7 17.9-7.2 39.3 3.6 44.7 21.5 16.1 44.7 23.3 91.2 23.3 137.7 0 57.2-10.7 112.7-34 166.3C842 826.1 724 920.9 584.5 949.5c-27 5.3-55.6 7.1-82.4 7.1z" p-id="1257" fill="#1296db"></path></svg>