<?xml version="1.0" standalone="no"?><!DOCTYPE svg PUBLIC "-//W3C//DTD SVG 1.1//EN" "http://www.w3.org/Graphics/SVG/1.1/DTD/svg11.dtd"><svg t="1604028731465" class="icon" viewBox="0 0 1024 1024" version="1.1" xmlns="http://www.w3.org/2000/svg" p-id="3082" xmlns:xlink="http://www.w3.org/1999/xlink" width="200" height="200"><defs><style type="text/css"></style></defs><path d="M213.333333 85.333333v85.333334h597.333334V85.333333h42.666666a170.666667 170.666667 0 0 1 170.666667 170.666667v597.333333a170.666667 170.666667 0 0 1-170.666667 170.666667H170.666667a170.666667 170.666667 0 0 1-170.666667-170.666667V256a170.666667 170.666667 0 0 1 170.666667-170.666667h42.666666z m725.333334 170.666667a85.333333 85.333333 0 0 0-85.333334-85.333333H170.666667a85.333333 85.333333 0 0 0-85.333334 85.333333v597.333333a85.333333 85.333333 0 0 0 85.333334 85.333334h682.666666a85.333333 85.333333 0 0 0 85.333334-85.333334V256z" p-id="3083" fill="#2c2c2c"></path><path d="M384 0h256a85.333333 85.333333 0 0 1 85.333333 85.333333v85.333334a85.333333 85.333333 0 0 1-85.333333 85.333333H384a85.333333 85.333333 0 0 1-85.333333-85.333333V85.333333a85.333333 85.333333 0 0 1 85.333333-85.333333z m0 85.333333v85.333334h256V85.333333H384z" p-id="3084" fill="#2c2c2c"></path><path d="M270.648991 572.337799m30.16989-30.16989l0 0q30.169889-30.169889 60.339778 0l120.679558 120.679558q30.169889 30.169889 0 60.339778l0 0q-30.169889 30.169889-60.339779 0l-120.679557-120.679557q-30.169889-30.169889 0-60.339779Z" p-id="3085" fill="#2c2c2c"></path><path d="M693.027442 391.318463m30.169889 30.169889l0 0q30.169889 30.169889 0 60.339779l-241.359114 241.359114q-30.169889 30.169889-60.339779 0l0 0q-30.169889-30.169889 0-60.339778l241.359114-241.359115q30.169889-30.169889 60.339779 0Z" p-id="3086" fill="#2c2c2c"></path></svg>