<?xml version="1.0" standalone="no"?><!DOCTYPE svg PUBLIC "-//W3C//DTD SVG 1.1//EN" "http://www.w3.org/Graphics/SVG/1.1/DTD/svg11.dtd"><svg t="1604027911058" class="icon" viewBox="0 0 1024 1024" version="1.1" xmlns="http://www.w3.org/2000/svg" p-id="3087" xmlns:xlink="http://www.w3.org/1999/xlink" width="200" height="200"><defs><style type="text/css"></style></defs><path d="M262.275393 677.662598c-26.62409 0-48.252644-21.328555-48.252644-47.577903V435.724639c0-26.250372 21.629577-47.578927 48.252644-47.578927h152.825124c26.599517 0 48.252644 21.328555 48.252643 47.578927v38.636313c14.910842-8.89142 30.620315-16.509127 47.079272-22.677013v-15.9593c0-51.700066-42.883389-94.008031-95.332939-94.008031h-152.825124c-52.448526 0-95.356488 42.307966-95.356488 94.008031v194.360056c0 44.731502 32.118259 82.343929 74.70165 91.709408v207.87227h47.078247l-0.224231-252.004799h-26.198154zM338.700242 292.014142c63.736861 0 115.28744-50.924984 115.287439-113.739325 0-62.813317-51.549554-113.713728-115.287439-113.713728-63.713312 0-115.362183 50.900411-115.362184 113.713728 0 62.814341 51.649895 113.739325 115.362184 113.739325z m0-181.022925c37.613451 0 68.233766 30.195402 68.233765 67.284624 0 37.113795-30.620315 67.309197-68.233765 67.309197-37.638025 0-68.282912-30.195402-68.282913-67.309197 0-37.089222 30.644888-67.284624 68.282913-67.284624z" p-id="3088" fill="#2c2c2c"></path><path d="M613.082055 477.532948c-134.96754 0-244.410642 107.870415-244.410642 240.939671 0 133.094853 109.443102 240.965268 244.410642 240.965268 135.092454 0 244.53658-107.870415 244.53658-240.965268 0-133.07028-109.444126-240.939671-244.53658-240.939671z m0 435.474811c-108.793959 0-197.306798-87.264722-197.306798-194.53514 0-107.244821 88.512839-194.53514 197.306798-194.53514 108.8943 0 197.458333 87.290319 197.458332 194.53514-0.001024 107.270418-88.565057 194.53514-197.458332 194.53514z" p-id="3089" fill="#2c2c2c"></path><path d="M716.381845 731.23535c-3.597933-3.1464-8.543299-6.193482-15.085926-9.316333-14.48593-6.793479-36.113459-12.863071-62.488745-17.508439l-2.997937-0.524229v-64.162798l4.14776 0.599997c24.474955 3.64708 41.708993 12.212904 49.076871 19.755867l38.58819-13.387301c-12.5385-23.801238-45.955045-41.309677-88.614203-46.130129l-3.197594-0.350169-0.023549-34.491625h-39.835283v34.241797l-3.247764 0.323548c-56.970003 5.645704-96.755115 33.443166-96.779688 67.534452 0 17.283184 9.939879 33.0674 28.772201 45.6059l1.523541 0.798631c9.091078 4.745708 29.844209 13.536788 66.684628 19.381125l3.048106 0.475083v61.46486l-4.097589-0.525253c-26.923065-3.546739-46.552994-13.361703-53.271729-21.728895l-39.661222 9.566161c10.165134 26.973235 46.380981 47.154015 93.759227 51.898699l3.271313 0.323548 0.02355 35.140768h39.811733l0.023549-35.415169 3.197594-0.350169c55.396292-6.244677 94.107348-33.941799 94.107348-67.334794 0-11.613931-4.49588-22.502952-13.186619-32.317917-1.076103-1.144704-2.249476-2.368247-3.547763-3.567216z m-120.432463-35.165342l-4.097589-0.549826c-34.766026-4.545027-56.120179-19.206041-56.120179-27.748316 0.05017-8.516678 21.403299-23.202265 56.120179-27.77289l4.097589-0.524229v56.595261z m44.007615 98.502888l-4.14776 0.62457V739.227798l4.14776 0.624571c31.468092 4.670965 53.348521 18.131985 53.29835 27.273233 0 9.215992-21.880429 22.727183-53.29835 27.447294z" p-id="3090" fill="#2c2c2c"></path></svg>