<?xml version="1.0" encoding="UTF-8"?>
<svg width="25px" height="24px" viewBox="0 0 25 24" version="1.1" xmlns="http://www.w3.org/2000/svg" xmlns:xlink="http://www.w3.org/1999/xlink">
    <!-- Generator: Sketch 61.2 (89653) - https://sketch.com -->
    <title>icon_cart_default</title>
    <desc>Created with Sketch.</desc>
    <g id="Page-1" stroke="none" stroke-width="1" fill="none" fill-rule="evenodd">
        <g id="首页" transform="translate(-175.000000, -2148.000000)">
            <g id="icon_cart_default" transform="translate(175.000000, 2148.000000)">
                <g>
                    <rect id="矩形备份-33" x="0" y="0" width="25" height="24"></rect>
                    <path d="M22.6927678,6.05893084 C22.5977554,5.94194162 22.4511058,5.86659264 22.2961942,5.86659264 L6.04080742,5.86659264 L5.35093459,2.38665926 C5.30549387,2.15862944 5.09687963,2 4.8531521,2 L2.58731229,2 C2.30847147,2 2.08333333,2.21811548 2.08333333,2.48580266 C2.08333333,2.75348985 2.30847147,2.97160533 2.58731229,2.97160533 L4.43592362,2.97160533 L5.08655219,6.44955584 C5.08655219,6.45153871 5.08655219,6.45352157 5.08655219,6.45748731 L7.12725386,16.6414975 C7.17269459,16.8695273 7.39989821,17.0301396 7.64156025,17.0301396 L19.770103,17.0301396 C20.0489438,17.0301396 20.2761474,16.8120241 20.2761474,16.5443369 C20.2761474,16.2766497 20.0489438,16.0585343 19.770103,16.0585343 L8.05878873,16.0585343 L7.74690012,14.5277602 L20.3938802,14.5912119 C20.3938802,14.5912119 20.3938802,14.5912119 20.3938802,14.5912119 C20.6272803,14.5912119 20.8317636,14.4028395 20.8854662,14.184724 L22.7857148,6.47136739 C22.8228935,6.32463515 22.7877802,6.17393718 22.6927678,6.05893084 Z M19.9952411,13.554172 L7.55480978,13.5303775 L6.63360234,8.89244924 L6.23289776,6.85802665 L21.6579586,6.85802665 L19.9952411,13.554172 Z M9.17828297,18.0295051 C8.20337286,18.0295051 7.41022565,18.7909264 7.41022565,19.7268401 C7.41022565,20.6627538 8.20337286,21.4241751 9.17828297,21.4241751 C10.1531931,21.4241751 10.9463403,20.6627538 10.9463403,19.7268401 C10.9463403,18.7909264 10.1531931,18.0295051 9.17828297,18.0295051 Z M9.17828297,20.4565355 C8.76105449,20.4565355 8.42024905,20.1293623 8.42024905,19.728823 C8.42024905,19.3282836 8.76105449,19.0011104 9.17828297,19.0011104 C9.59551145,19.0011104 9.93631689,19.3282836 9.93631689,19.728823 C9.93631689,20.1293623 9.59551145,20.4565355 9.17828297,20.4565355 Z M17.7686456,18.0295051 C16.7937355,18.0295051 16.0005883,18.7909264 16.0005883,19.7268401 C16.0005883,20.6627538 16.7937355,21.4241751 17.7686456,21.4241751 C18.7435557,21.4241751 19.5367029,20.6627538 19.5367029,19.7268401 C19.5367029,18.7909264 18.7456212,18.0295051 17.7686456,18.0295051 Z M17.7686456,20.4565355 C17.3514171,20.4565355 17.0106116,20.1293623 17.0106116,19.728823 C17.0106116,19.3282836 17.3514171,19.0011104 17.7686456,19.0011104 C18.185874,19.0011104 18.5266795,19.3282836 18.5266795,19.728823 C18.5266795,20.1293623 18.1879395,20.4565355 17.7686456,20.4565355 Z" id="形状备份" fill="#0D0D0D" fill-rule="nonzero"></path>
                </g>
            </g>
        </g>
    </g>
</svg>