<?xml version="1.0" encoding="UTF-8"?>
<svg width="24px" height="24px" viewBox="0 0 24 24" version="1.1" xmlns="http://www.w3.org/2000/svg" xmlns:xlink="http://www.w3.org/1999/xlink">
    <!-- Generator: Sketch 61.2 (89653) - https://sketch.com -->
    <title>icon_recharge_active</title>
    <desc>Created with Sketch.</desc>
    <g id="Page-1" stroke="none" stroke-width="1" fill="none" fill-rule="evenodd">
        <g id="首页" transform="translate(-62.000000, -2212.000000)">
            <g id="icon_recharge_active" transform="translate(62.000000, 2212.000000)">
                <g>
                    <rect id="矩形备份-22" x="0" y="0" width="24" height="24"></rect>
                    <g id="编组-12" transform="translate(2.000000, 5.000000)">
                        <rect id="矩形备份-24" stroke="#0D0D0D" fill="#FCC900" x="0" y="0" width="20" height="16" rx="2"></rect>
                        <path d="M7.06855479,11.1790769 C7.34078477,10.9321704 7.34078477,10.5319835 7.06855479,10.2850769 L4.54584821,8 L2.02314161,10.2846154 C1.82350684,10.4651179 1.76338509,10.7368265 1.87078503,10.9731613 C1.97818498,11.2094961 2.23198037,11.3639686 2.51393659,11.3646154 C2.69416628,11.3646154 2.86625001,11.3032308 3.00269508,11.1790769 L3.82951155,10.4203077 L3.82951155,13.3676923 C3.82951155,13.7161539 4.1609509,14 4.54584821,14 C4.93023641,14 5.26167576,13.7161538 5.26167574,13.3676923 L5.26167574,10.4203077 L6.0884922,11.1790769 C6.21797535,11.297713 6.39442515,11.3644686 6.5785235,11.3644686 C6.76262184,11.3644686 6.93907164,11.297713 7.06855479,11.1790769 L7.06855479,11.1790769 Z" id="路径" fill="#030303"></path>
                        <rect id="矩形备份-25" fill="#0D0D0D" x="0" y="4" width="20" height="2"></rect>
                    </g>
                </g>
            </g>
        </g>
    </g>
</svg>