<?xml version="1.0" encoding="UTF-8"?>
<svg width="24px" height="24px" viewBox="0 0 24 24" version="1.1" xmlns="http://www.w3.org/2000/svg" xmlns:xlink="http://www.w3.org/1999/xlink">
    <!-- Generator: Sketch 61.2 (89653) - https://sketch.com -->
    <title>icon_cart_active</title>
    <desc>Created with Sketch.</desc>
    <g id="Page-1" stroke="none" stroke-width="1" fill="none" fill-rule="evenodd">
        <g id="首页" transform="translate(-176.000000, -2358.000000)">
            <g id="编组-6" transform="translate(0.000000, 2351.000000)">
                <g id="icon_cart_active" transform="translate(176.000000, 7.000000)">
                    <g id="编组-4">
                        <g>
                            <rect id="矩形备份-21" x="0" y="0" width="24" height="24"></rect>
                            <g id="编组-3" transform="translate(2.000000, 2.000000)" fill-rule="nonzero">
                                <path d="M19.7850571,4.05893084 C19.6938452,3.94194162 19.5530615,3.86659264 19.4043464,3.86659264 L3.79917513,3.86659264 L3.13689721,0.386659264 C3.09327411,0.158629442 2.89300444,-1.73550063e-12 2.65902602,-1.73550063e-12 L0.483819797,-1.73550063e-12 C0.216132614,-1.73550063e-12 -8.82849349e-13,0.218115482 -8.82849349e-13,0.485802665 C-8.82849349e-13,0.753489848 0.216132614,0.97160533 0.483819797,0.97160533 L2.25848668,0.97160533 L2.8830901,4.44955584 C2.8830901,4.45153871 2.8830901,4.45352157 2.8830901,4.45748731 L4.84216371,14.6414975 C4.8857868,14.8695273 5.10390228,15.0301396 5.33589784,15.0301396 L16.9792989,15.0301396 C17.246986,15.0301396 17.4651015,14.8120241 17.4651015,14.5443369 C17.4651015,14.2766497 17.246986,14.0585343 16.9792989,14.0585343 L5.73643718,14.0585343 L5.43702411,12.5277602 L17.578125,12.5912119 C17.8021891,12.5912119 17.998493,12.4028395 18.0500476,12.184724 L19.8742862,4.47136739 C19.9099778,4.32463515 19.876269,4.17393718 19.7850571,4.05893084 Z M6.81115165,16.0295051 C5.87523794,16.0295051 5.11381662,16.7909264 5.11381662,17.7268401 C5.11381662,18.6627538 5.87523794,19.4241751 6.81115165,19.4241751 C7.74706536,19.4241751 8.50848668,18.6627538 8.50848668,17.7268401 C8.50848668,16.7909264 7.74706536,16.0295051 6.81115165,16.0295051 Z M6.81115165,18.4565355 C6.41061231,18.4565355 6.08343909,18.1293623 6.08343909,17.728823 C6.08343909,17.3282836 6.41061231,17.0011104 6.81115165,17.0011104 C7.21169099,17.0011104 7.53886421,17.3282836 7.53886421,17.728823 C7.53886421,18.1293623 7.21169099,18.4565355 6.81115165,18.4565355 Z M15.0578997,16.0295051 C14.121986,16.0295051 13.3605647,16.7909264 13.3605647,17.7268401 C13.3605647,18.6627538 14.121986,19.4241751 15.0578997,19.4241751 C15.9938135,19.4241751 16.7552348,18.6627538 16.7552348,17.7268401 C16.7552348,16.7909264 15.9957963,16.0295051 15.0578997,16.0295051 Z M15.0578997,18.4565355 C14.6573604,18.4565355 14.3301872,18.1293623 14.3301872,17.728823 C14.3301872,17.3282836 14.6573604,17.0011104 15.0578997,17.0011104 C15.4584391,17.0011104 15.7856123,17.3282836 15.7856123,17.728823 C15.7856123,18.1293623 15.460422,18.4565355 15.0578997,18.4565355 Z" id="形状备份-2" fill="#0D0D0D"></path>
                                <polygon id="路径" fill="#FCC900" points="17.1954315 11.554172 5.25261739 11.5303775 4.36825825 6.89244924 3.98358185 4.85802665 18.7916402 4.85802665"></polygon>
                            </g>
                        </g>
                    </g>
                </g>
            </g>
        </g>
    </g>
</svg>