<?xml version="1.0" encoding="UTF-8"?>
<svg width="24px" height="24px" viewBox="0 0 24 24" version="1.1" xmlns="http://www.w3.org/2000/svg" xmlns:xlink="http://www.w3.org/1999/xlink">
    <!-- Generator: Sketch 61.2 (89653) - https://sketch.com -->
    <title>icon_orders_active</title>
    <desc>Created with Sketch.</desc>
    <g id="Page-1" stroke="none" stroke-width="1" fill="none" fill-rule="evenodd">
        <g id="首页" transform="translate(-250.000000, -2265.000000)">
            <g id="icon_orders_active" transform="translate(250.000000, 2265.000000)">
                <g>
                    <rect id="矩形备份-7" x="0" y="0" width="24" height="24"></rect>
                    <g id="编组备份-5" transform="translate(2.000000, 3.000000)" fill="#0D0D0D" fill-rule="nonzero">
                        <path d="M14.9353234,18.630597 L4.97885572,18.630597 C3.22923138,18.6278559 1.81175612,17.2098243 1.80970149,15.460199 L1.80970149,7.76741294 L18.10199,7.76741294 L18.10199,15.460199 C18.1013062,17.2094217 16.6845441,18.6278533 14.9353234,18.630597 L14.9353234,18.630597 Z" id="形状"></path>
                        <path d="M18.1032338,8.67164179 L1.80970149,8.67164179 C0.810799078,8.67027155 0.00137023844,7.86084271 0,6.8619403 L0,5.95646766 C0,4.95895522 0.812189055,4.14676617 1.80970149,4.14676617 L18.1032338,4.14676617 C19.10199,4.14676617 19.9141791,4.95895522 19.9141791,5.95646766 L19.9141791,6.8619403 C19.9141791,7.85945274 19.1007463,8.67164179 18.1032338,8.67164179 L18.1032338,8.67164179 Z" id="形状"></path>
                        <path d="M10.4626866,5.05099502 L5.01616915,5.05099502 L4.88308458,4.91791045 C4.11567164,4.14427861 3.71144279,3.11069652 3.7761194,2.08333333 C3.8221393,1.35447761 4.09825871,0.740049751 4.53482587,0.399253731 C4.86940299,0.138059701 5.3159204,0 5.82835821,0 C6.84950249,0 8.00497512,0.542288557 8.91791045,1.45024876 C9.75144477,2.28459201 10.2764566,3.37759916 10.4067164,4.54975124 L10.4626866,5.05099502 L10.4626866,5.05099502 Z" id="形状"></path>
                        <path d="M14.89801,5.05099502 L9.45149254,5.05099502 L9.50621891,4.54975124 C9.58333333,3.8681592 9.87562189,2.55970149 10.9950249,1.45024876 C11.909204,0.542288557 13.0646766,0 14.0858209,0 C14.5970149,0 15.0447761,0.138059701 15.3793532,0.39800995 C15.8134328,0.740049751 16.090796,1.35447761 16.1343284,2.08208955 C16.2014925,3.10945274 15.7972637,4.14303483 15.028607,4.91666667 L14.89801,5.05099502 L14.89801,5.05099502 Z" id="形状"></path>
                    </g>
                    <path d="M12.4937811,7.14676617 L16.5136816,7.14676617 C17.0174129,6.57338308 17.278607,5.85199005 17.2325871,5.14054726 C17.2064677,4.69029851 17.0422886,4.28606965 16.8208955,4.1119403 C16.6467662,3.97636816 16.3942786,3.90422886 16.0858209,3.90422886 C15.2972637,3.90422886 14.380597,4.34825871 13.6318408,5.09079602 C13.0708788,5.65860325 12.677129,6.36993486 12.4937811,7.14676617 L12.4937811,7.14676617 Z" id="路径" fill="#FCC900" fill-rule="nonzero"></path>
                    <path d="M7.40049751,7.14676617 L11.4191542,7.14676617 C11.2368387,6.3695364 10.8429423,5.65793989 10.2810945,5.09079602 C9.53109453,4.34825871 8.61442786,3.90422886 7.82835821,3.90422886 C7.5199005,3.90422886 7.26616915,3.97636816 7.09328358,4.1119403 C6.87064677,4.28606965 6.710199,4.69029851 6.68159204,5.14054726 C6.63557214,5.85199005 6.89800995,6.57338308 7.40049751,7.14676617 L7.40049751,7.14676617 Z" id="路径" fill="#FCC900" fill-rule="nonzero"></path>
                    <path d="M4.71641791,11.6716418 L4.71641791,18.460199 C4.71641791,19.7099103 5.72914465,20.7231939 6.97885572,20.7238806 L16.9353234,20.7238806 C18.1850345,20.7231939 19.1977612,19.7099103 19.1977612,18.460199 L19.1977612,11.6716418 L4.71641791,11.6716418 Z" id="路径" fill="#FCC900" fill-rule="nonzero"></path>
                    <path d="M3.80970149,8.05099502 C3.31067574,8.05304397 2.90683564,8.45743957 2.90547264,8.95646766 L2.90547264,9.8619403 C2.90615269,10.3614539 3.31019163,10.7666044 3.80970149,10.7686567 L20.1032338,10.7686567 C20.6037154,10.7679716 21.0092651,10.3624219 21.0099502,9.8619403 L21.0099502,8.95646766 C21.009264,8.45618781 20.6035142,8.05099502 20.1032338,8.05099502 L3.80970149,8.05099502 L3.80970149,8.05099502 Z" id="路径" fill="#FCC900" fill-rule="nonzero"></path>
                    <path d="M11.9564677,20.7238823 C11.8362932,20.7242121 11.7209452,20.6766197 11.6359687,20.5916432 C11.5509922,20.5066667 11.5033998,20.3913187 11.5037296,20.2711443 L11.5037296,8.05099502 C11.5037296,7.80095567 11.7064283,7.59825873 11.9564677,7.59825873 C12.206507,7.59825873 12.4092057,7.80095567 12.4092057,8.05099502 L12.4092057,20.2711443 C12.4095355,20.3913187 12.3619431,20.5066667 12.2769666,20.5916432 C12.1919901,20.6766197 12.0766421,20.7242121 11.9564677,20.7238823 Z" id="路径" fill="#0D0D0D" fill-rule="nonzero"></path>
                </g>
            </g>
        </g>
    </g>
</svg>