<?xml version="1.0" encoding="UTF-8"?>
<svg width="24px" height="24px" viewBox="0 0 24 24" version="1.1" xmlns="http://www.w3.org/2000/svg" xmlns:xlink="http://www.w3.org/1999/xlink">
    <!-- Generator: Sketch 61.2 (89653) - https://sketch.com -->
    <title>icon_orders_defaut</title>
    <desc>Created with Sketch.</desc>
    <g id="Page-1" stroke="none" stroke-width="1" fill="none" fill-rule="evenodd">
        <g id="首页" transform="translate(-250.000000, -2148.000000)">
            <g id="icon_orders_defaut" transform="translate(250.000000, 2148.000000)">
                <g>
                    <rect id="矩形备份-27" x="0" y="0" width="24" height="24"></rect>
                    <g id="编组-36" transform="translate(2.000000, 3.000000)" fill="#0D0D0D" fill-rule="nonzero">
                        <g id="编组备份-6">
                            <path d="M18.10199,7.76741294 L18.10199,15.460199 C18.1013062,17.2094217 16.6845441,18.6278533 14.9353234,18.630597 L4.97885572,18.630597 C3.22923138,18.6278559 1.81175612,17.2098243 1.80970149,15.460199 L1.80970149,7.76741294 L18.10199,7.76741294 Z M17.1977612,8.67164179 L2.71641791,8.67164179 L2.71641791,15.460199 C2.71641791,16.7099103 3.72914465,17.7231939 4.97885572,17.7238806 L14.9353234,17.7238806 C16.1850345,17.7231939 17.1977612,16.7099103 17.1977612,15.460199 L17.1977612,8.67164179 Z" id="形状"></path>
                            <path d="M18.1032338,8.67164179 L1.80970149,8.67164179 C0.810799078,8.67027155 0.00137023844,7.86084271 0,6.8619403 L0,5.95646766 C0,4.95895522 0.812189055,4.14676617 1.80970149,4.14676617 L18.1032338,4.14676617 C19.10199,4.14676617 19.9141791,4.95895522 19.9141791,5.95646766 L19.9141791,6.8619403 C19.9141791,7.85945274 19.1007463,8.67164179 18.1032338,8.67164179 L18.1032338,8.67164179 Z M1.80970149,5.05099502 C1.31067574,5.05304397 0.906835636,5.45743957 0.905472637,5.95646766 L0.905472637,6.8619403 C0.906152686,7.36145391 1.31019163,7.76660438 1.80970149,7.76865672 L18.1032338,7.76865672 C18.6037154,7.76797159 19.0092651,7.36242189 19.0099502,6.8619403 L19.0099502,5.95646766 C19.009264,5.45618781 18.6035142,5.05099502 18.1032338,5.05099502 L1.80970149,5.05099502 L1.80970149,5.05099502 Z" id="形状"></path>
                            <path d="M10.4626866,5.05099502 L5.01616915,5.05099502 L4.88308458,4.91791045 C4.11567164,4.14427861 3.71144279,3.11069652 3.7761194,2.08333333 C3.8221393,1.35447761 4.09825871,0.740049751 4.53482587,0.399253731 C4.86940299,0.138059701 5.3159204,0 5.82835821,0 C6.84950249,0 8.00497512,0.542288557 8.91791045,1.45024876 C9.75144477,2.28459201 10.2764566,3.37759916 10.4067164,4.54975124 L10.4626866,5.05099502 L10.4626866,5.05099502 Z M5.40049751,4.14676617 L9.41915423,4.14676617 C9.23683871,3.3695364 8.84294227,2.65793989 8.28109453,2.09079602 C7.53109453,1.34825871 6.61442786,0.904228856 5.82835821,0.904228856 C5.5199005,0.904228856 5.26616915,0.976368159 5.09328358,1.1119403 C4.87064677,1.28606965 4.710199,1.69029851 4.68159204,2.14054726 C4.63557214,2.85199005 4.89800995,3.57338308 5.40049751,4.14676617 L5.40049751,4.14676617 Z" id="形状"></path>
                            <path d="M14.89801,5.05099502 L9.45149254,5.05099502 L9.50621891,4.54975124 C9.58333333,3.8681592 9.87562189,2.55970149 10.9950249,1.45024876 C11.909204,0.542288557 13.0646766,0 14.0858209,0 C14.5970149,0 15.0447761,0.138059701 15.3793532,0.39800995 C15.8134328,0.740049751 16.090796,1.35447761 16.1343284,2.08208955 C16.2014925,3.10945274 15.7972637,4.14303483 15.028607,4.91666667 L14.89801,5.05099502 L14.89801,5.05099502 Z M10.4937811,4.14676617 L14.5136816,4.14676617 C15.0174129,3.57338308 15.278607,2.85199005 15.2325871,2.14054726 C15.2064677,1.69029851 15.0422886,1.28606965 14.8208955,1.1119403 C14.6467662,0.976368159 14.3942786,0.904228856 14.0858209,0.904228856 C13.2972637,0.904228856 12.380597,1.34825871 11.6318408,2.09079602 C11.0708788,2.65860325 10.677129,3.36993486 10.4937811,4.14676617 L10.4937811,4.14676617 Z" id="形状"></path>
                        </g>
                        <path d="M9.95646766,17.7238823 C9.8362932,17.7242121 9.72094523,17.6766197 9.63596873,17.5916432 C9.55099223,17.5066667 9.50339983,17.3913187 9.50372962,17.2711443 L9.50372962,5.05099502 C9.50372962,4.80095567 9.70642831,4.59825873 9.95646766,4.59825873 C10.206507,4.59825873 10.4092057,4.80095567 10.4092057,5.05099502 L10.4092057,17.2711443 C10.4095355,17.3913187 10.3619431,17.5066667 10.2769666,17.5916432 C10.1919901,17.6766197 10.0766421,17.7242121 9.95646766,17.7238823 Z" id="路径"></path>
                    </g>
                </g>
            </g>
        </g>
    </g>
</svg>