<svg xmlns="http://www.w3.org/2000/svg" viewBox="0 0 32 32" width="32" height="32" style="fill: rgba(51, 51, 51, 1);"><path d="M14.667 28c0-1.105-0.895-2-2-2s-2 0.895-2 2v0h-6.667c-0.736 0-1.333-0.597-1.333-1.333v0-21.333c0-0.736 0.597-1.333 1.333-1.333v0h6.667c0 1.105 0.895 2 2 2s2-0.895 2-2v0h13.333c0.736 0 1.333 0.597 1.333 1.333v0 7.333c-1.841 0-3.333 1.492-3.333 3.333s1.492 3.333 3.333 3.333v0 7.333c0 0.736-0.597 1.333-1.333 1.333v0h-13.333zM12.667 14c1.105 0 2-0.895 2-2s-0.895-2-2-2v0c-1.105 0-2 0.895-2 2s0.895 2 2 2v0zM12.667 22c1.105 0 2-0.895 2-2s-0.895-2-2-2v0c-1.105 0-2 0.895-2 2s0.895 2 2 2v0z"></path></svg>