<?xml version="1.0" standalone="no"?><!DOCTYPE svg PUBLIC "-//W3C//DTD SVG 1.1//EN" "http://www.w3.org/Graphics/SVG/1.1/DTD/svg11.dtd"><svg t="1620368966618" class="icon" viewBox="0 0 1024 1024" version="1.1" xmlns="http://www.w3.org/2000/svg" p-id="2027" width="30" height="30" xmlns:xlink="http://www.w3.org/1999/xlink"><defs><style type="text/css"></style></defs><path d="M967.509333 315.733333a71.04 71.04 0 0 0-96.64-17.066666l-69.034666 48.298666v-3.456A173.056 173.056 0 0 0 629.333333 170.666667H215.210667A173.056 173.056 0 0 0 42.666667 343.210667v345.088a173.056 173.056 0 0 0 172.544 172.544h414.122666a173.056 173.056 0 0 0 172.544-158.762667l70.741334 48.298667a67.157333 67.157333 0 0 0 39.68 12.074666A69.205333 69.205333 0 0 0 981.333333 693.504V355.328a84.352 84.352 0 0 0-13.824-39.594667z m-234.666666 372.693334a103.850667 103.850667 0 0 1-103.509334 103.509333H215.210667a103.850667 103.850667 0 0 1-103.509334-103.509333V343.338667a103.850667 103.850667 0 0 1 103.509334-103.509334h414.122666a103.850667 103.850667 0 0 1 103.509334 103.509334z m177.706666 5.162666l-108.714666-75.904v-186.368l108.714666-75.904z" fill="#fcc900" p-id="2028"></path><path d="M215.210667 394.965333a51.754667 51.754667 0 1 0 51.754666-51.754666 51.754667 51.754667 0 0 0-51.754666 51.754666z" fill="#fcc900" p-id="2029"></path></svg>