<?xml version="1.0" standalone="no"?><!DOCTYPE svg PUBLIC "-//W3C//DTD SVG 1.1//EN" "http://www.w3.org/Graphics/SVG/1.1/DTD/svg11.dtd"><svg t="1620370805747" class="icon" viewBox="0 0 1024 1024" version="1.1" xmlns="http://www.w3.org/2000/svg" p-id="2855" xmlns:xlink="http://www.w3.org/1999/xlink" width="50" height="50"><defs><style type="text/css"></style></defs><path d="M512 1.998049c275.880585 0 499.512195 223.63161 499.512195 499.512195 0 275.85561-223.63161 499.512195-499.512195 499.512195s-499.512195-223.656585-499.512195-499.512195c0-275.880585 223.63161-499.512195 499.512195-499.512195z m1.998049 208.121756c-160.468293 0-291.090732 129.973073-291.140683 289.866927l0.174829 10.165073c1.498537 43.957073 13.037268 87.04 33.767025 125.902049l0.799219 1.473561-15.58478 134.193951 139.663609-13.287025 1.698342 0.874147a292.314537 292.314537 0 0 0 130.622439 30.794927c160.493268 0 291.115707-129.998049 291.190634-289.891903 0.249756-76.924878-30.470244-150.852683-85.291707-205.174634a290.066732 290.066732 0 0 0-205.873952-84.917073z m0 49.951219c64.611902 0.024976 125.102829 24.97561 170.683317 70.406244a237.767805 237.767805 0 0 1 70.556097 169.659317c-0.074927 132.32078-108.294244 240.01561-241.214439 240.01561a242.138537 242.138537 0 0 1-115.387317-29.221463l-6.718439-3.646439-93.159024 8.841366 10.364878-89.038049-4.145951-7.168a238.517073 238.517073 0 0 1-32.168586-119.882927c0.049951-132.295805 108.244293-239.965659 241.189464-239.965659z m-94.208 125.377561a24.026537 24.026537 0 0 0-17.532878 8.316878c-6.019122 6.643512-23.002537 22.727805-23.002537 55.395903 0 32.718049 23.552 64.28722 26.848781 68.707902 3.271805 4.445659 46.379707 71.530146 112.340292 100.277073 15.684683 6.843317 27.947707 10.939317 37.513366 13.986342 15.734634 5.070049 30.070634 4.370732 41.409561 2.647415 12.637659-1.898146 38.912-16.059317 44.406634-31.569171 5.469659-15.534829 5.469659-28.821854 3.821269-31.594147-1.373659-2.297756-4.645463-3.846244-9.490732-6.243902l-3.121951-1.498537c-6.568585-3.346732-38.912-19.406049-44.931122-21.628878-6.019122-2.222829-10.414829-3.321756-14.810537 3.321757-4.370732 6.668488-16.983415 21.628878-20.804683 26.04956-3.846244 4.420683-7.692488 4.995122-14.236097 1.673366-6.593561-3.321756-27.797854-10.339902-52.898342-32.967805-19.555902-17.607805-32.768-39.361561-36.589268-46.030048-3.846244-6.643512-0.424585-10.24 2.872195-13.536781 2.947122-2.997073 6.568585-7.742439 9.865366-11.638634 3.29678-3.87122 4.395707-6.643512 6.568585-11.089171 2.197854-4.420683 1.098927-8.291902-0.549463-11.638634-1.623415-3.321756-14.785561-35.989854-20.280195-49.301853-5.319805-12.937366-10.739512-11.189073-14.785561-11.413854-3.846244-0.174829-8.216976-0.22478-12.612683-0.224781z" fill="#4dc247" p-id="2856"></path></svg>