<?xml version="1.0" standalone="no"?><!DOCTYPE svg PUBLIC "-//W3C//DTD SVG 1.1//EN" "http://www.w3.org/Graphics/SVG/1.1/DTD/svg11.dtd"><svg t="1634020974134" class="icon" viewBox="0 0 1024 1024" version="1.1" xmlns="http://www.w3.org/2000/svg" p-id="6192" xmlns:xlink="http://www.w3.org/1999/xlink" width="20" height="20"><defs><style type="text/css"></style></defs><path d="M528.340426 4.425532c127.319149 0 229.106383 91.574468 229.106383 229.106383 0 15.319149-10.212766 30.638298-30.638298 30.638298-15.319149 0-45.957447-10.212766-45.957447-30.638298 0-117.106383-96.680851-178.382979-224-142.638298-61.276596 15.319149-86.468085 76.255319-86.468085 142.638298 0 15.319149-25.531915 25.531915-40.851064 25.531915S294.12766 238.638298 294.12766 223.659574c-10.212766-137.531915 106.893617-219.234043 234.212766-219.234042z m0 0" p-id="6193" fill="#8a8a8a"></path><path d="M854.468085 1022.978723h-646.808511c-45.957447 0-91.574468-45.957447-91.574468-91.574468l51.06383-636.595744c0-45.957447 51.06383-91.574468 91.574468-91.574468h545.021277c45.957447 0 86.468085 40.851064 86.468085 86.468085l51.06383 646.80851c-0.340426 45.617021-41.191489 86.468085-86.808511 86.468085zM192.340426 921.191489c0 15.319149 15.319149 30.638298 30.638297 30.638298h605.957447c15.319149 0 30.638298-15.319149 30.638298-30.638298l-40.851064-611.063829c0-15.319149-15.319149-30.638298-30.638298-30.638298H263.489362c-15.319149 0-30.638298 15.319149-30.638298 30.638298L192.340426 921.191489z m0 0" p-id="6194" fill="#8a8a8a"></path><path d="M360.510638 804.085106v-66.042553c61.276596 25.531915 112 40.851064 152.851064 40.851064 30.638298 0 56.170213-5.106383 76.255319-20.425532 20.425532-10.212766 30.638298-30.638298 30.638298-45.957447 0-25.531915-25.531915-45.957447-71.148936-61.276595l-81.361702-25.531915c-66.042553-25.531915-96.680851-60.93617-96.680851-112 0-35.744681 15.319149-66.042553 40.851064-86.468085 30.638298-20.425532 71.148936-30.638298 122.212766-30.638298 40.851064 0 86.468085 5.106383 137.531914 20.425532v61.276595c-51.06383-15.319149-96.680851-20.425532-137.531914-20.425532-25.531915 0-51.06383 5.106383-66.042554 15.319149-15.319149 5.106383-25.531915 15.319149-25.531915 35.744681s20.425532 35.744681 56.170213 51.06383l96.680851 35.744681c35.744681 10.212766 61.276596 25.531915 76.255319 45.957447 15.319149 15.319149 25.531915 40.851064 25.531915 66.042553 0 40.851064-15.319149 71.148936-51.063829 96.680851-30.638298 25.531915-76.255319 35.744681-132.425532 35.744681-51.404255-10.553191-102.468085-15.659574-153.19149-36.085107z m0 0" p-id="6195" fill="#8a8a8a"></path></svg>