<?xml version="1.0" standalone="no"?><!DOCTYPE svg PUBLIC "-//W3C//DTD SVG 1.1//EN" "http://www.w3.org/Graphics/SVG/1.1/DTD/svg11.dtd"><svg t="1634285613316" class="icon" viewBox="0 0 1024 1024" version="1.1" xmlns="http://www.w3.org/2000/svg" p-id="5052" width="20" height="20" xmlns:xlink="http://www.w3.org/1999/xlink"><defs><style type="text/css"></style></defs><path d="M512 0a512 512 0 1 0 512 512A512 512 0 0 0 512 0z m0 983.04A471.04 471.04 0 1 1 983.04 512 471.04 471.04 0 0 1 512 983.04z m249.048615-624.797538L457.038769 662.232615l-171.598769-171.323077a28.967385 28.967385 0 1 0-40.96 40.96l192 191.350154a28.809846 28.809846 0 0 0 40.644923 0L801.476923 398.808615a28.829538 28.829538 0 0 0-40.566154-40.96z" p-id="5053" fill="#A5DC86"></path></svg>